<?xml version="1.0" encoding="utf-8"?>
<!DOCTYPE svg PUBLIC "-//W3C//DTD SVG 20010904//EN" "http://www.w3.org/TR/2001/REC-SVG-20010904/DTD/svg10.dtd">
<svg version="1.0" xmlns="http://www.w3.org/2000/svg" width="66pt" height="66pt" viewBox="0 0 66 66" style="" preserveAspectRatio="xMidYMid meet">
<g fill="#0F847BFF" stroke="#0F847BFF">
<path d="M 25.764 21.289 C 22.609 23.055 20.025 24.725 20.023 25.000 C 20.020 25.275 22.939 27.160 26.509 29.190 L 33.000 32.880 39.491 29.190 C 43.061 27.160 45.980 25.275 45.979 25.000 C 45.975 24.191 34.265 17.996 32.821 18.039 C 32.094 18.061 28.919 19.523 25.764 21.289 "/></g>
<g fill="#0F847BFF" stroke="#0F847BFF">
<path d="M 40.250 31.732 L 34.000 35.436 34.000 42.218 C 34.000 45.948 34.264 49.000 34.588 49.000 C 34.911 49.000 38.061 47.386 41.588 45.414 L 48.000 41.828 48.000 34.914 C 48.000 31.111 47.663 28.006 47.250 28.014 C 46.838 28.021 43.688 29.694 40.250 31.732 "/></g>
<g fill="#0F847BFF" stroke="#0F847BFF">
<path d="M 18.000 34.914 L 18.000 41.828 24.412 45.414 C 27.939 47.386 31.089 49.000 31.412 49.000 C 31.736 49.000 32.000 45.943 32.000 42.208 L 32.000 35.416 25.662 31.708 C 22.176 29.668 19.026 28.000 18.662 28.000 C 18.298 28.000 18.000 31.111 18.000 34.914 "/></g>
<g fill="#0F847BFF" stroke="#0F847BFF">
<path d="M 13.057 47.106 C 10.374 48.742 9.933 49.393 11.057 50.056 C 11.851 50.524 16.775 53.336 22.000 56.306 L 31.500 61.706 31.779 57.103 L 32.057 52.500 25.136 48.750 C 21.329 46.688 17.829 45.002 17.357 45.004 C 16.886 45.006 14.951 45.952 13.057 47.106 "/></g>
<g fill="#0F847BFF" stroke="#0F847BFF">
<path d="M 40.759 48.779 L 34.018 52.500 34.009 57.292 L 34.000 62.084 38.250 59.619 C 40.588 58.263 45.577 55.380 49.337 53.213 L 56.175 49.271 52.719 47.136 C 50.819 45.961 48.867 45.013 48.382 45.029 C 47.897 45.045 44.466 46.732 40.759 48.779 "/></g>
<g fill="#0F847BFF" stroke="#0F847BFF">
<path d="M 20.750 12.266 C 14.838 15.649 10.000 18.702 10.000 19.051 C 10.000 19.400 11.510 20.498 13.356 21.492 L 16.711 23.299 24.406 19.052 L 32.102 14.804 31.801 10.460 L 31.500 6.116 20.750 12.266 "/></g>
<g fill="#0F847BFF" stroke="#0F847BFF">
<path d="M 34.000 10.335 L 34.000 14.860 41.580 19.044 L 49.160 23.229 52.580 21.387 C 54.461 20.374 56.000 19.293 56.000 18.986 C 56.000 18.678 52.963 16.694 49.250 14.576 C 45.538 12.459 40.588 9.620 38.250 8.268 L 34.000 5.810 34.000 10.335 "/></g>
<g fill="#0F847BFF" stroke="#0F847BFF">
<path d="M 53.717 23.777 C 50.968 25.479 50.937 25.612 51.217 34.447 C 51.499 43.372 51.508 43.398 54.750 45.289 L 58.000 47.184 58.000 34.592 C 58.000 27.666 57.663 22.012 57.250 22.027 C 56.838 22.041 55.247 22.829 53.717 23.777 "/></g>
<g fill="#0F847BFF" stroke="#0F847BFF">
<path d="M 8.000 34.592 L 8.000 47.184 11.250 45.289 C 14.493 43.398 14.501 43.373 14.784 34.433 L 15.069 25.472 12.130 23.736 C 10.514 22.781 8.923 22.000 8.596 22.000 C 8.268 22.000 8.000 27.666 8.000 34.592 "/></g>
<g fill="#0E837A80" stroke="#0E837A80">
<path d="M 57.998 34.252 C 57.724 41.815 57.850 48.003 58.278 48.002 C 58.706 48.001 58.930 41.813 58.776 34.250 L 58.496 20.500 57.998 34.252 "/></g>
<g fill="#0F847BBF" stroke="#0F847BBF">
<path d="M 50.178 33.691 C 50.080 38.746 50.338 43.092 50.750 43.349 C 51.163 43.606 51.243 39.470 50.928 34.158 L 50.356 24.500 50.178 33.691 "/></g>
<g fill="#0F847BBF" stroke="#0F847BBF">
<path d="M 15.132 34.500 C 14.945 40.000 15.083 43.787 15.439 42.916 C 15.795 42.045 15.948 37.545 15.779 32.916 L 15.471 24.500 15.132 34.500 "/></g>
<g fill="#10837C40" stroke="#10837C40">
<path d="M 8.422 48.668 C 8.576 49.719 8.923 49.934 9.350 49.242 C 9.726 48.635 9.615 47.880 9.104 47.564 C 8.593 47.249 8.286 47.745 8.422 48.668 "/></g>
<g fill="#10837C40" stroke="#10837C40">
<path d="M 57.030 18.691 C 57.014 19.346 57.507 20.195 58.126 20.578 C 58.955 21.090 58.963 20.776 58.157 19.387 C 57.554 18.349 57.047 18.036 57.030 18.691 "/></g>
</svg>
