<?xml version="1.0" encoding="utf-8"?>
<!DOCTYPE svg PUBLIC "-//W3C//DTD SVG 20010904//EN" "http://www.w3.org/TR/2001/REC-SVG-20010904/DTD/svg10.dtd">
<svg version="1.0" xmlns="http://www.w3.org/2000/svg" width="66pt" height="66pt" viewBox="0 0 66 66" style="" preserveAspectRatio="xMidYMid meet">
<g fill="#0F847BFF" stroke="#0F847BFF">
<path d="M 3.000 5.000 L 3.000 8.000 11.000 8.000 L 19.000 8.000 19.000 33.000 L 19.000 58.000 22.000 58.000 L 25.000 58.000 25.000 33.000 L 25.000 8.000 33.000 8.000 L 41.000 8.000 41.000 5.000 L 41.000 2.000 22.000 2.000 L 3.000 2.000 3.000 5.000 "/></g>
<g fill="#0F847BFF" stroke="#0F847BFF">
<path d="M 41.316 15.943 C 31.118 20.573 31.678 31.688 42.434 38.125 C 56.250 46.393 56.720 46.756 57.259 49.572 C 58.836 57.825 48.735 61.786 38.250 57.027 L 34.000 55.098 34.000 58.014 C 34.000 61.592 36.260 62.966 43.336 63.691 C 54.536 64.839 63.000 59.642 63.000 51.617 C 63.000 44.977 60.706 42.366 49.280 36.002 C 45.309 33.791 41.597 31.115 41.030 30.056 C 39.211 26.657 39.847 23.265 42.730 20.997 C 45.000 19.212 46.476 18.914 51.480 19.230 C 54.791 19.439 58.288 19.971 59.250 20.412 C 60.706 21.079 61.000 20.710 61.000 18.214 C 61.000 16.401 60.374 14.974 59.418 14.607 C 55.993 13.293 45.439 14.072 41.316 15.943 "/></g>
<g fill="#10837C40" stroke="#10837C40">
<path d="M 25.240 34.000 L 25.000 58.000 22.000 58.194 C 19.252 58.373 19.273 58.394 22.250 58.444 L 25.500 58.500 25.490 34.250 L 25.480 10.000 25.240 34.000 "/></g>
<g fill="#10837C40" stroke="#10837C40">
<path d="M 36.378 18.378 L 35.500 19.256 36.378 18.378 L 37.256 17.500 36.378 18.378 "/></g>
<g fill="#0F847BBF" stroke="#0F847BBF">
<path d="M 55.500 46.500 L 57.000 48.000 55.500 46.500 L 54.000 45.000 55.500 46.500 "/></g>
</svg>
