<?xml version="1.0" encoding="utf-8"?>
<!DOCTYPE svg PUBLIC "-//W3C//DTD SVG 20010904//EN" "http://www.w3.org/TR/2001/REC-SVG-20010904/DTD/svg10.dtd">
<svg version="1.0" xmlns="http://www.w3.org/2000/svg" width="68pt" height="66pt" viewBox="0 0 68 66" style="" preserveAspectRatio="xMidYMid meet">
<g fill="#0F847BFF" stroke="#0F847BFF">
<path d="M 5.000 3.000 C 2.119 5.881 2.361 9.000 5.465 9.000 C 8.174 9.000 10.341 11.948 9.412 14.369 C 9.092 15.202 7.635 16.022 6.174 16.192 C 2.609 16.605 1.834 20.000 5.304 20.000 C 6.652 20.000 8.291 20.646 8.947 21.436 C 10.712 23.563 8.562 27.000 5.465 27.000 C 1.995 27.000 2.352 29.620 5.920 30.334 C 11.499 31.450 10.550 38.000 4.809 38.000 C 3.814 38.000 3.000 38.675 3.000 39.500 C 3.000 40.413 3.931 41.000 5.378 41.000 C 8.413 41.000 10.351 43.319 9.515 45.952 C 9.055 47.403 8.010 48.000 5.933 48.000 C 3.207 48.000 3.000 48.266 3.000 51.777 C 3.000 53.855 3.701 56.555 4.557 57.777 C 6.092 59.969 6.449 60.000 30.022 60.000 C 52.635 60.000 53.986 59.895 54.965 58.066 C 56.355 55.468 56.355 10.532 54.965 7.934 C 54.349 6.783 52.877 6.000 51.329 6.000 C 49.841 6.000 47.739 4.932 46.412 3.500 C 44.101 1.006 44.048 1.000 25.548 1.000 C 8.333 1.000 6.856 1.144 5.000 3.000 M 51.768 31.889 C 51.957 49.022 51.698 56.659 50.896 57.626 C 49.996 58.709 45.432 59.000 29.312 59.000 C 8.894 59.000 5.000 58.434 5.000 55.465 C 5.000 54.230 7.989 54.000 24.066 54.000 C 35.296 54.000 43.926 53.575 45.066 52.965 C 46.887 51.990 47.000 50.659 47.000 30.131 C 47.000 18.143 47.316 8.018 47.701 7.632 C 48.087 7.246 49.099 7.065 49.951 7.229 C 51.290 7.486 51.536 10.827 51.768 31.889 M 39.750 10.989 C 41.538 12.079 43.000 13.473 43.000 14.088 C 43.000 14.933 28.072 40.778 26.358 42.899 C 26.181 43.118 23.999 42.218 21.509 40.899 C 18.579 39.347 17.169 38.010 17.512 37.112 C 19.061 33.063 34.299 9.001 35.312 9.004 C 35.965 9.006 37.963 9.899 39.750 10.989 M 21.460 42.495 L 25.419 44.927 21.742 46.463 C 16.477 48.663 16.000 48.458 16.000 44.000 C 16.000 41.800 16.338 40.014 16.750 40.031 C 17.163 40.048 19.282 41.157 21.460 42.495 "/></g>
<g fill="#0E837A80" stroke="#0E837A80">
<path d="M 4.000 22.959 C 7.343 23.702 7.377 23.751 4.750 24.056 C 2.277 24.343 2.252 24.381 4.500 24.438 C 8.409 24.535 7.928 22.519 4.000 22.341 L 0.500 22.182 4.000 22.959 "/></g>
<g fill="#0F847BFF" stroke="#0F847BFF">
<path d="M 2.000 34.000 C 2.000 34.550 3.125 35.000 4.500 35.000 C 5.875 35.000 7.000 34.550 7.000 34.000 C 7.000 33.450 5.875 33.000 4.500 33.000 C 3.125 33.000 2.000 33.450 2.000 34.000 "/></g>
<g fill="#0F847BFF" stroke="#0F847BFF">
<path d="M 2.000 13.000 C 2.000 13.550 3.125 14.000 4.500 14.000 C 5.875 14.000 7.000 13.550 7.000 13.000 C 7.000 12.450 5.875 12.000 4.500 12.000 C 3.125 12.000 2.000 12.450 2.000 13.000 "/></g>
<g fill="#0F847BBF" stroke="#0F847BBF">
<path d="M 47.581 5.131 C 47.876 5.609 49.329 5.954 50.809 5.898 C 53.343 5.801 53.312 5.751 50.272 5.028 C 48.479 4.602 47.282 4.648 47.581 5.131 "/></g>
</svg>
