<?xml version="1.0" encoding="utf-8"?>
<!DOCTYPE svg PUBLIC "-//W3C//DTD SVG 20010904//EN" "http://www.w3.org/TR/2001/REC-SVG-20010904/DTD/svg10.dtd">
<svg version="1.0" xmlns="http://www.w3.org/2000/svg" width="66pt" height="66pt" viewBox="0 0 66 66" style="" preserveAspectRatio="xMidYMid meet">
<g fill="#0F847BFF" stroke="#0F847BFF">
<path d="M 30.999 1.861 C 30.997 2.921 21.337 8.004 20.644 7.310 C 20.290 6.956 20.000 7.180 20.000 7.808 C 20.000 8.787 14.211 12.542 13.882 11.776 C 13.816 11.624 13.800 11.790 13.846 12.143 C 13.892 12.497 12.577 13.347 10.925 14.031 C 5.559 16.254 5.000 18.069 5.000 33.268 C 5.000 46.719 5.067 47.150 7.477 49.295 C 12.676 53.922 13.844 54.822 14.195 54.472 C 14.394 54.273 16.203 54.482 18.217 54.936 C 21.044 55.574 22.004 55.433 22.432 54.317 C 22.736 53.523 23.399 53.128 23.903 53.440 C 24.443 53.774 24.874 47.421 24.950 38.003 C 25.061 24.207 24.866 22.000 23.539 22.000 C 22.230 22.000 22.000 24.006 22.000 35.429 C 22.000 46.750 21.732 49.125 20.295 50.563 C 19.183 51.674 18.457 51.871 18.209 51.128 C 18.000 50.501 17.409 50.247 16.896 50.564 C 16.383 50.881 14.397 50.172 12.482 48.989 L 9.000 46.837 9.000 32.904 L 9.000 18.971 12.179 17.037 C 13.928 15.974 15.728 15.332 16.179 15.611 C 16.631 15.890 17.000 15.653 17.000 15.085 C 17.000 13.787 22.525 10.858 23.373 11.707 C 23.718 12.051 24.000 11.847 24.000 11.252 C 24.000 10.658 26.025 9.039 28.500 7.656 L 33.000 5.141 37.500 7.656 C 39.975 9.039 42.000 10.658 42.000 11.252 C 42.000 11.847 42.282 12.051 42.627 11.707 C 43.475 10.858 49.000 13.787 49.000 15.085 C 49.000 15.653 49.369 15.890 49.821 15.611 C 50.272 15.332 52.072 15.974 53.821 17.037 L 57.000 18.971 57.000 33.000 L 57.000 47.029 53.821 48.963 C 52.072 50.026 50.272 50.668 49.821 50.389 C 49.369 50.110 49.000 50.347 49.000 50.915 C 49.000 52.213 43.475 55.142 42.627 54.293 C 42.282 53.949 42.000 54.153 42.000 54.748 C 42.000 55.342 39.961 56.969 37.468 58.362 L 32.936 60.895 29.602 58.928 C 27.768 57.845 25.522 57.246 24.612 57.595 C 23.170 58.149 23.264 58.506 25.343 60.365 C 26.656 61.539 28.349 62.649 29.106 62.830 C 29.862 63.012 30.710 63.462 30.991 63.830 C 31.619 64.656 34.319 64.712 35.000 63.913 C 36.323 62.362 44.751 58.084 45.335 58.668 C 45.701 59.034 46.000 58.820 46.000 58.192 C 46.000 57.213 51.789 53.458 52.118 54.224 C 52.184 54.376 52.200 54.210 52.154 53.857 C 52.108 53.503 53.423 52.653 55.075 51.969 C 60.424 49.753 61.000 47.909 61.000 33.000 C 61.000 18.091 60.424 16.247 55.075 14.031 C 53.423 13.347 52.108 12.497 52.154 12.143 C 52.200 11.790 52.184 11.624 52.118 11.776 C 51.789 12.542 46.000 8.787 46.000 7.808 C 46.000 7.180 45.701 6.966 45.335 7.332 C 44.751 7.916 36.323 3.638 35.000 2.087 C 34.303 1.268 31.000 1.082 30.999 1.861 "/></g>
<g fill="#0F847BFF" stroke="#0F847BFF">
<path d="M 35.000 21.357 C 35.000 21.828 34.363 21.969 33.584 21.671 C 32.248 21.158 29.000 26.244 29.000 28.850 C 29.000 30.601 33.414 34.725 34.783 34.254 C 35.489 34.010 36.839 34.146 37.783 34.554 C 38.727 34.963 40.513 35.198 41.750 35.077 C 42.988 34.956 44.000 35.339 44.000 35.928 C 44.000 36.518 44.563 36.888 45.250 36.750 C 45.983 36.603 46.500 37.533 46.500 39.000 C 46.500 41.410 46.267 41.500 40.000 41.500 C 34.218 41.500 33.391 41.251 32.513 39.250 C 31.092 36.011 28.793 36.354 29.184 39.748 C 29.417 41.774 30.516 43.021 33.370 44.498 C 39.027 47.424 45.496 46.540 49.710 42.263 C 51.367 40.582 52.342 35.000 50.978 35.000 C 50.648 35.000 49.505 34.213 48.439 33.250 C 47.290 32.213 44.467 31.367 41.513 31.175 C 38.770 30.996 36.244 30.395 35.901 29.840 C 35.557 29.284 34.877 28.868 34.388 28.915 C 33.900 28.962 33.500 28.229 33.500 27.288 C 33.500 24.940 40.256 23.340 43.645 24.884 C 45.002 25.502 45.836 26.457 45.497 27.004 C 45.159 27.552 45.385 28.000 46.000 28.000 C 46.615 28.000 46.866 28.408 46.558 28.907 C 46.249 29.405 46.898 29.578 47.999 29.290 C 50.523 28.630 50.557 26.557 48.083 24.083 C 47.029 23.029 46.453 21.880 46.803 21.530 C 47.153 21.181 46.665 21.191 45.720 21.554 C 44.774 21.917 44.000 21.828 44.000 21.357 C 44.000 20.886 41.975 20.500 39.500 20.500 C 37.025 20.500 35.000 20.886 35.000 21.357 "/></g>
<g fill="#0F847BBF" stroke="#0F847BBF">
<path d="M 23.250 21.631 C 24.789 22.084 25.028 23.769 25.233 35.573 L 25.467 49.000 25.483 35.264 C 25.499 22.257 25.394 21.516 23.500 21.321 C 21.946 21.161 21.890 21.230 23.250 21.631 "/></g>
<g fill="#0E837A80" stroke="#0E837A80">
<path d="M 46.508 29.013 C 46.844 29.556 47.879 29.971 48.809 29.937 C 50.009 29.892 49.833 29.605 48.199 28.950 C 46.708 28.352 46.113 28.374 46.508 29.013 "/></g>
</svg>
