<?xml version="1.0" encoding="utf-8"?>
<!DOCTYPE svg PUBLIC "-//W3C//DTD SVG 20010904//EN" "http://www.w3.org/TR/2001/REC-SVG-20010904/DTD/svg10.dtd">
<svg version="1.0" xmlns="http://www.w3.org/2000/svg" width="82pt" height="66pt" viewBox="0 0 82 66" style="" preserveAspectRatio="xMidYMid meet">
<g fill="#0F847BFF" stroke="#0F847BFF">
<path d="M 30.982 4.037 C 19.838 6.684 6.358 15.563 3.023 22.453 C -0.148 29.004 1.681 32.746 11.657 40.116 L 17.086 44.127 11.588 47.747 C 5.762 51.584 3.384 55.410 4.374 59.353 C 5.196 62.631 10.041 63.549 14.742 61.318 C 19.189 59.208 22.499 52.473 21.557 47.452 C 21.052 44.759 21.313 43.903 22.899 43.054 C 25.757 41.524 25.801 41.586 25.264 46.354 C 24.366 54.316 29.373 58.342 32.071 51.828 L 33.385 48.656 34.276 51.328 C 35.780 55.841 37.798 54.359 42.272 45.455 L 46.566 36.910 47.866 40.505 C 49.247 44.324 49.432 43.779 44.385 50.750 C 42.816 52.917 42.848 53.000 45.243 53.000 C 46.611 53.000 48.957 52.035 50.457 50.855 C 52.642 49.136 53.094 48.095 52.730 45.616 C 52.415 43.465 53.032 41.326 54.757 38.592 L 57.238 34.662 58.617 37.940 C 59.903 40.999 59.828 41.415 57.497 44.185 C 54.356 47.919 54.294 50.000 57.326 50.000 C 60.456 50.000 64.248 45.831 63.830 42.851 C 63.532 40.728 63.925 40.470 67.888 40.186 C 73.458 39.787 77.902 41.612 79.112 44.795 C 79.631 46.160 80.281 47.052 80.556 46.777 C 80.831 46.502 80.613 45.112 80.071 43.687 C 78.559 39.710 73.657 37.652 67.266 38.312 C 62.265 38.828 61.836 38.700 60.975 36.433 C 60.466 35.095 60.320 32.651 60.650 31.000 C 61.768 25.408 58.370 27.502 54.905 34.542 C 51.377 41.707 49.511 41.922 50.163 35.087 C 50.503 31.519 50.295 31.001 48.526 31.007 C 46.919 31.013 45.794 32.774 43.090 39.518 C 41.214 44.195 38.999 48.579 38.166 49.261 C 36.867 50.325 36.749 50.146 37.327 48.000 C 38.934 42.041 39.308 37.692 38.152 38.406 C 37.429 38.853 37.000 38.373 37.000 37.118 C 37.000 36.018 36.523 34.823 35.940 34.463 C 34.727 33.713 29.000 35.837 29.000 37.036 C 29.000 37.472 26.922 38.990 24.383 40.410 L 19.766 42.990 14.862 38.885 C 8.675 33.704 7.000 31.305 7.000 27.622 C 7.000 23.524 10.957 18.778 17.882 14.572 C 25.651 9.852 31.379 7.884 37.573 7.805 C 44.667 7.714 47.000 9.175 47.000 13.707 C 47.000 22.319 31.255 30.677 21.610 27.184 C 20.530 26.793 20.865 27.308 22.392 28.386 C 24.535 29.898 26.211 30.168 30.854 29.747 C 41.479 28.784 49.596 22.431 50.698 14.218 C 51.793 6.053 42.561 1.286 30.982 4.037 M 19.000 49.035 C 19.000 53.006 16.636 56.494 12.896 58.043 C 6.240 60.800 7.030 53.091 13.880 48.435 C 18.485 45.306 19.000 45.367 19.000 49.035 M 32.968 45.086 C 31.751 48.339 30.347 51.000 29.847 51.000 C 26.754 51.000 28.505 41.495 32.296 37.704 C 34.319 35.681 34.503 35.655 34.828 37.347 C 35.022 38.351 34.184 41.833 32.968 45.086 M 48.972 49.534 C 46.923 52.002 45.787 51.160 47.703 48.593 C 48.691 47.268 49.655 46.609 49.845 47.126 C 50.034 47.644 49.641 48.727 48.972 49.534 "/></g>
<g fill="#1A80800A" stroke="#1A80800A">
<path d="M 12.000 50.888 L 10.500 52.563 12.000 50.888 L 13.500 49.212 12.000 50.888 "/></g>
<g fill="#1A80800A" stroke="#1A80800A">
<path d="M 6.000 16.888 L 4.500 18.563 6.000 16.888 L 7.500 15.212 6.000 16.888 "/></g>
<g fill="#1A80800A" stroke="#1A80800A">
<path d="M 18.378 59.378 L 17.500 60.256 18.378 59.378 L 19.256 58.500 18.378 59.378 "/></g>
<g fill="#1A80800A" stroke="#1A80800A">
<path d="M 15.378 55.378 L 14.500 56.256 15.378 55.378 L 16.256 54.500 15.378 55.378 "/></g>
<g fill="#1A80800A" stroke="#1A80800A">
<path d="M 6.378 50.378 L 5.500 51.256 6.378 50.378 L 7.256 49.500 6.378 50.378 "/></g>
<g fill="#1A80800A" stroke="#1A80800A">
<path d="M 53.800 49.200 C 54.733 50.133 55.000 50.133 55.000 49.200 C 55.000 48.540 54.460 48.000 53.800 48.000 C 52.867 48.000 52.867 48.267 53.800 49.200 "/></g>
<g fill="#1A80800A" stroke="#1A80800A">
<path d="M 28.378 36.378 L 27.500 37.256 28.378 36.378 L 29.256 35.500 28.378 36.378 "/></g>
<g fill="#10837C80" stroke="#10837C80">
<path d="M 47.000 50.047 C 46.010 50.656 45.925 50.975 46.750 50.985 C 47.438 50.993 48.113 50.578 48.250 50.062 C 48.404 49.485 47.924 49.479 47.000 50.047 "/></g>
<g fill="#10837C80" stroke="#10837C80">
<path d="M 18.500 41.500 L 20.000 43.000 18.500 41.500 L 17.000 40.000 18.500 41.500 "/></g>
<g fill="#10837C80" stroke="#10837C80">
<path d="M 11.378 19.378 L 10.500 20.256 11.378 19.378 L 12.256 18.500 11.378 19.378 "/></g>
</svg>
