<?xml version="1.0" encoding="utf-8"?>
<!DOCTYPE svg PUBLIC "-//W3C//DTD SVG 20010904//EN" "http://www.w3.org/TR/2001/REC-SVG-20010904/DTD/svg10.dtd">
<svg version="1.0" xmlns="http://www.w3.org/2000/svg" width="82pt" height="66pt" viewBox="0 0 82 66" style="" preserveAspectRatio="xMidYMid meet">
<g fill="#12535FFF" stroke="#12535FFF">
<path d="M 55.000 15.138 C 55.000 20.631 54.812 21.184 53.103 20.737 C 52.060 20.464 49.472 21.211 47.353 22.396 C 43.841 24.361 43.473 24.965 43.197 29.230 C 42.906 33.728 43.050 34.006 46.927 36.454 C 49.145 37.854 51.203 39.000 51.500 39.000 C 51.797 39.000 53.831 37.869 56.020 36.487 L 60.000 33.975 60.000 22.648 C 60.000 11.536 59.952 11.299 57.500 10.182 L 55.000 9.043 55.000 15.138 M 54.376 28.231 C 55.215 29.563 55.084 30.344 53.811 31.618 C 50.815 34.614 46.345 30.699 49.046 27.444 C 50.601 25.571 52.916 25.913 54.376 28.231 "/></g>
<g fill="#12535FFF" stroke="#12535FFF">
<path d="M 25.750 22.573 C 22.351 24.799 22.000 25.443 22.000 29.458 C 22.000 33.601 22.273 34.050 26.230 36.409 L 30.460 38.932 34.480 36.564 C 38.126 34.416 38.528 33.773 38.803 29.644 C 39.092 25.292 38.928 24.980 35.073 22.546 C 32.855 21.146 30.693 20.026 30.270 20.059 C 29.846 20.091 27.813 21.223 25.750 22.573 "/></g>
<g fill="#12535FFF" stroke="#12535FFF">
<path d="M 4.753 22.358 C 1.054 24.472 1.005 24.581 1.003 30.729 L 1.000 36.957 3.500 35.818 C 5.413 34.947 6.000 33.923 6.000 31.462 C 6.000 24.786 11.993 24.380 13.000 30.987 C 13.289 32.884 14.449 34.896 15.750 35.756 L 18.000 37.244 18.000 30.870 L 18.000 24.497 13.750 22.246 C 8.820 19.634 9.535 19.625 4.753 22.358 "/></g>
<g fill="#12535FFF" stroke="#12535FFF">
<path d="M 67.697 22.607 C 64.085 24.971 63.910 25.331 64.197 29.772 C 64.475 34.055 64.832 34.634 68.444 36.655 C 71.888 38.581 72.703 38.696 74.875 37.557 L 77.363 36.254 73.118 33.575 C 68.655 30.757 68.090 28.576 71.313 26.607 C 72.771 25.716 73.461 25.908 74.842 27.588 C 76.222 29.267 76.994 29.482 78.779 28.685 C 80.001 28.140 81.000 27.094 81.000 26.360 C 81.000 25.083 73.870 19.937 72.270 20.059 C 71.846 20.091 69.789 21.238 67.697 22.607 "/></g>
<g fill="#10506010" stroke="#10506010">
<path d="M 17.656 30.522 C 17.742 34.555 18.080 37.587 18.406 37.260 C 19.274 36.393 19.133 24.201 18.250 23.654 C 17.838 23.399 17.570 26.489 17.656 30.522 "/></g>
<g fill="#12535FFF" stroke="#12535FFF">
<path d="M 34.250 41.689 C 32.346 42.894 32.025 43.911 32.163 48.307 L 32.326 53.500 32.913 48.346 C 33.236 45.511 34.175 42.533 35.000 41.728 C 36.318 40.442 36.227 40.437 34.250 41.689 "/></g>
<g fill="#12535FFF" stroke="#12535FFF">
<path d="M 46.686 42.025 C 47.338 42.864 48.045 45.789 48.256 48.525 L 48.640 53.500 48.820 48.372 C 48.955 44.527 48.562 42.902 47.250 41.872 C 45.720 40.672 45.649 40.691 46.686 42.025 "/></g>
<g fill="#10506010" stroke="#10506010">
<path d="M 63.716 23.617 C 63.322 24.011 63.071 26.621 63.158 29.417 L 63.315 34.500 63.874 28.701 C 64.181 25.511 64.110 23.224 63.716 23.617 "/></g>
<g fill="#10506010" stroke="#10506010">
<path d="M 33.141 47.191 C 33.063 49.771 33.346 52.096 33.770 52.358 C 34.193 52.620 34.257 50.509 33.911 47.667 L 33.282 42.500 33.141 47.191 "/></g>
<g fill="#12535FFF" stroke="#12535FFF">
<path d="M 71.150 28.950 C 71.580 30.239 72.951 30.471 73.075 29.275 C 73.116 28.876 72.610 28.370 71.950 28.150 C 71.290 27.930 70.930 28.290 71.150 28.950 "/></g>
<g fill="#10506010" stroke="#10506010">
<path d="M 50.507 41.989 C 50.144 42.577 50.595 42.709 51.622 42.315 C 53.007 41.783 53.203 42.032 52.614 43.576 C 52.055 45.044 52.159 45.224 53.054 44.337 C 54.255 43.145 53.578 41.000 52.000 41.000 C 51.515 41.000 50.843 41.445 50.507 41.989 "/></g>
<g fill="#12535FAA" stroke="#12535FAA">
<path d="M 41.800 51.200 C 42.733 52.133 43.267 52.133 44.200 51.200 C 45.133 50.267 44.867 50.000 43.000 50.000 C 41.133 50.000 40.867 50.267 41.800 51.200 "/></g>
<g fill="#12535FFF" stroke="#12535FFF">
<path d="M 40.000 47.032 C 40.000 47.565 41.013 47.971 42.250 47.937 L 44.500 47.873 42.250 46.969 C 40.844 46.404 40.000 46.427 40.000 47.032 "/></g>
<g fill="#10506010" stroke="#10506010">
<path d="M 41.499 45.999 C 41.779 46.451 42.794 46.671 43.754 46.487 C 45.609 46.132 45.514 46.041 42.745 45.511 C 41.780 45.327 41.219 45.546 41.499 45.999 "/></g>
<g fill="#14546040" stroke="#14546040">
<path d="M 51.030 43.750 C 51.059 45.417 51.109 45.417 52.080 43.750 C 52.781 42.547 52.771 42.000 52.050 42.000 C 51.472 42.000 51.014 42.788 51.030 43.750 "/></g>
<g fill="#12535FFF" stroke="#12535FFF">
<path d="M 41.387 39.157 C 42.776 39.963 43.090 39.955 42.578 39.126 C 42.195 38.507 41.346 38.014 40.691 38.030 C 40.036 38.047 40.349 38.554 41.387 39.157 "/></g>
<g fill="#10506010" stroke="#10506010">
<path d="M 31.030 51.691 C 31.014 52.346 31.507 53.195 32.126 53.578 C 32.955 54.090 32.963 53.776 32.157 52.387 C 31.554 51.349 31.047 51.036 31.030 51.691 "/></g>
<g fill="#10506010" stroke="#10506010">
<path d="M 46.422 51.668 C 46.576 52.719 46.923 52.934 47.350 52.242 C 47.726 51.635 47.615 50.880 47.104 50.564 C 46.593 50.249 46.286 50.745 46.422 51.668 "/></g>
<g fill="#12535FAA" stroke="#12535FAA">
<path d="M 35.000 53.800 C 35.000 54.460 35.540 55.000 36.200 55.000 C 37.133 55.000 37.133 54.733 36.200 53.800 C 35.267 52.867 35.000 52.867 35.000 53.800 "/></g>
</svg>
