<?xml version="1.0" encoding="utf-8"?>
<!DOCTYPE svg PUBLIC "-//W3C//DTD SVG 20010904//EN" "http://www.w3.org/TR/2001/REC-SVG-20010904/DTD/svg10.dtd">
<svg version="1.0" xmlns="http://www.w3.org/2000/svg" width="66pt" height="66pt" viewBox="0 0 66 66" style="" preserveAspectRatio="xMidYMid meet">
<g fill="#41B883FF" stroke="#41B883FF">
<path d="M 6.148 9.811 C 7.004 12.055 32.552 55.943 33.000 55.940 C 33.476 55.936 59.116 11.956 59.852 9.881 C 60.064 9.282 58.115 9.010 54.933 9.194 L 49.662 9.500 41.581 23.713 C 37.136 31.530 33.275 37.925 33.000 37.925 C 32.725 37.925 28.847 31.529 24.383 23.712 L 16.266 9.500 11.031 9.194 C 8.115 9.024 5.952 9.297 6.148 9.811 "/></g>
<g fill="#34495EFF" stroke="#34495EFF">
<path d="M 4.366 8.699 C 4.750 9.084 7.066 9.275 9.511 9.125 C 14.607 8.812 18.294 9.715 17.456 11.072 C 17.140 11.582 17.310 12.000 17.833 12.000 C 18.355 12.000 19.066 13.125 19.411 14.500 C 19.756 15.875 20.506 17.000 21.078 17.000 C 21.650 17.000 21.882 17.382 21.594 17.849 C 21.305 18.315 21.927 19.617 22.974 20.742 C 24.022 21.867 24.607 23.060 24.273 23.394 C 23.940 23.727 24.143 24.000 24.725 24.000 C 25.307 24.000 26.066 25.125 26.411 26.500 C 26.756 27.875 27.506 29.000 28.078 29.000 C 28.650 29.000 28.840 29.450 28.500 30.000 C 28.160 30.550 28.359 31.000 28.941 31.000 C 29.523 31.000 30.000 31.675 30.000 32.500 C 30.000 33.325 30.477 34.000 31.059 34.000 C 31.641 34.000 31.840 34.450 31.500 35.000 C 31.160 35.550 31.835 36.000 33.000 36.000 C 34.165 36.000 34.840 35.550 34.500 35.000 C 34.160 34.450 34.359 34.000 34.941 34.000 C 35.523 34.000 36.000 33.325 36.000 32.500 C 36.000 31.675 36.477 31.000 37.059 31.000 C 37.641 31.000 37.840 30.550 37.500 30.000 C 37.160 29.450 37.310 29.000 37.833 29.000 C 38.355 29.000 39.066 27.875 39.411 26.500 C 39.756 25.125 40.506 24.000 41.078 24.000 C 41.650 24.000 41.840 23.550 41.500 23.000 C 41.160 22.450 41.359 22.000 41.941 22.000 C 42.523 22.000 43.000 21.394 43.000 20.653 C 43.000 19.912 43.900 18.268 45.000 17.000 C 46.100 15.732 47.000 14.088 47.000 13.347 C 47.000 12.606 47.477 12.000 48.059 12.000 C 48.641 12.000 48.860 11.582 48.544 11.072 C 47.706 9.715 51.393 8.812 56.489 9.125 C 58.934 9.275 61.250 9.084 61.634 8.699 C 62.496 7.837 57.987 7.818 47.438 8.640 L 39.376 9.267 36.473 14.634 C 34.876 17.585 33.314 20.000 33.000 20.000 C 32.686 20.000 31.124 17.585 29.527 14.634 L 26.624 9.267 18.562 8.640 C 8.013 7.818 3.504 7.837 4.366 8.699 "/></g>
<g fill="#34495EFF" stroke="#34495EFF">
<path d="M 28.398 50.235 C 30.331 53.665 32.328 56.609 32.836 56.779 C 33.762 57.087 40.455 46.122 39.764 45.430 C 39.561 45.228 38.069 47.522 36.448 50.528 C 34.827 53.534 33.275 55.989 33.000 55.985 C 32.725 55.980 31.020 53.282 29.211 49.988 C 27.402 46.695 25.688 44.000 25.403 44.000 C 25.118 44.000 26.465 46.806 28.398 50.235 "/></g>
<g fill="#34495EFF" stroke="#34495EFF">
<path d="M 43.053 39.750 L 41.856 42.500 43.053 39.750 L 44.250 37.000 43.053 39.750 "/></g>
<g fill="#34495EFF" stroke="#34495EFF">
<path d="M 22.667 40.067 C 24.193 42.804 24.356 42.905 23.642 40.670 C 23.171 39.193 22.346 37.714 21.810 37.382 C 21.274 37.051 21.659 38.259 22.667 40.067 "/></g>
<g fill="#34495EFF" stroke="#34495EFF">
<path d="M 50.053 27.750 L 48.856 30.500 50.053 27.750 L 51.250 25.000 50.053 27.750 "/></g>
<g fill="#34495EFF" stroke="#34495EFF">
<path d="M 54.053 20.750 L 52.856 23.500 54.053 20.750 L 55.250 18.000 54.053 20.750 "/></g>
<g fill="#34495EFF" stroke="#34495EFF">
<path d="M 11.667 21.067 C 13.193 23.804 13.356 23.905 12.642 21.670 C 12.171 20.193 11.346 18.714 10.810 18.382 C 10.274 18.051 10.659 19.259 11.667 21.067 "/></g>
<g fill="#34495EFF" stroke="#34495EFF">
<path d="M 18.040 31.559 C 18.018 32.141 18.699 33.491 19.552 34.559 C 20.962 36.321 20.965 36.223 19.592 33.500 C 18.761 31.850 18.062 30.976 18.040 31.559 "/></g>
<g fill="#34495EFF" stroke="#34495EFF">
<path d="M 15.408 27.500 C 16.239 29.150 16.938 30.024 16.960 29.441 C 16.982 28.859 16.301 27.509 15.448 26.441 C 14.038 24.679 14.035 24.777 15.408 27.500 "/></g>
<g fill="#34495EFF" stroke="#34495EFF">
<path d="M 7.040 12.559 C 7.018 13.141 7.699 14.491 8.552 15.559 C 9.962 17.321 9.965 17.223 8.592 14.500 C 7.761 12.850 7.062 11.976 7.040 12.559 "/></g>
<g fill="#34495EFF" stroke="#34495EFF">
<path d="M 46.250 34.422 L 45.500 36.343 46.250 34.422 L 47.000 32.500 46.250 34.422 "/></g>
<g fill="#34495EFF" stroke="#34495EFF">
<path d="M 57.250 15.422 L 56.500 17.343 57.250 15.422 L 58.000 13.500 57.250 15.422 "/></g>
</svg>
