<?xml version="1.0" encoding="utf-8"?>
<!DOCTYPE svg PUBLIC "-//W3C//DTD SVG 20010904//EN" "http://www.w3.org/TR/2001/REC-SVG-20010904/DTD/svg10.dtd">
<svg version="1.0" xmlns="http://www.w3.org/2000/svg" width="66pt" height="66pt" viewBox="0 0 66 66" style="" preserveAspectRatio="xMidYMid meet">
<g fill="#0F847BFF" stroke="#0F847BFF">
<path d="M 6.233 32.230 L 6.500 58.500 13.119 58.793 L 19.739 59.085 22.422 52.772 C 24.490 47.906 27.738 43.601 36.590 33.989 L 48.075 21.519 47.788 14.010 L 47.500 6.500 26.733 6.230 L 5.967 5.959 6.233 32.230 M 42.500 12.500 C 42.500 14.402 41.741 14.514 27.076 14.777 C 11.323 15.060 8.555 14.446 11.201 11.258 C 12.027 10.262 15.895 10.015 27.393 10.225 C 41.742 10.486 42.500 10.600 42.500 12.500 M 41.896 19.914 C 42.663 20.400 43.015 21.519 42.677 22.399 C 42.151 23.771 39.859 24.000 26.638 24.000 C 13.973 24.000 11.113 23.736 10.649 22.526 C 10.337 21.714 10.849 20.606 11.792 20.057 C 13.907 18.823 39.978 18.700 41.896 19.914 M 31.820 31.250 C 31.517 33.381 30.994 33.515 21.901 33.784 C 14.359 34.008 12.037 33.749 11.065 32.578 C 8.721 29.754 10.948 29.000 21.629 29.000 C 31.956 29.000 32.134 29.039 31.820 31.250 "/></g>
<g fill="#0F847BFF" stroke="#0F847BFF">
<path d="M 47.448 28.271 C 43.067 32.797 37.310 38.804 34.655 41.621 L 29.829 46.742 32.809 48.864 L 35.789 50.986 47.850 37.626 L 59.911 24.265 57.663 22.153 L 55.415 20.041 47.448 28.271 "/></g>
<g fill="#0F847BFF" stroke="#0F847BFF">
<path d="M 40.750 50.471 C 37.038 54.527 34.000 58.104 34.000 58.422 C 34.000 58.740 36.684 59.000 39.965 59.000 C 47.227 59.000 48.233 57.720 47.797 49.027 L 47.500 43.099 40.750 50.471 "/></g>
<g fill="#0F847BFF" stroke="#0F847BFF">
<path d="M 24.810 54.454 C 23.607 56.930 22.891 59.225 23.220 59.553 C 23.909 60.243 32.000 55.110 32.000 53.982 C 32.000 53.568 30.874 52.492 29.499 51.591 C 27.012 49.962 26.985 49.978 24.810 54.454 "/></g>
<g fill="#10837C40" stroke="#10837C40">
<path d="M 14.000 59.077 L 7.500 59.655 13.750 59.827 C 17.188 59.922 20.113 59.663 20.250 59.250 C 20.388 58.838 17.575 58.760 14.000 59.077 "/></g>
<g fill="#10837C40" stroke="#10837C40">
<path d="M 40.000 34.942 L 36.500 38.562 40.000 34.942 L 43.500 31.323 40.000 34.942 "/></g>
<g fill="#0E837A80" stroke="#0E837A80">
<path d="M 47.000 27.924 L 44.500 30.566 47.000 27.924 L 49.500 25.282 47.000 27.924 "/></g>
<g fill="#0F847BBF" stroke="#0F847BBF">
<path d="M 36.000 39.924 L 33.500 42.566 36.000 39.924 L 38.500 37.282 36.000 39.924 "/></g>
<g fill="#10837C40" stroke="#10837C40">
<path d="M 30.500 41.410 L 28.500 43.567 30.500 41.410 L 32.500 39.253 30.500 41.410 "/></g>
<g fill="#10837C40" stroke="#10837C40">
<path d="M 43.500 27.410 L 41.500 29.567 43.500 27.410 L 45.500 25.253 43.500 27.410 "/></g>
<g fill="#0E837A80" stroke="#0E837A80">
<path d="M 30.748 44.874 C 29.784 45.858 29.334 47.001 29.748 47.414 C 30.162 47.828 30.504 47.792 30.508 47.333 C 30.513 46.875 30.963 45.732 31.508 44.793 C 32.373 43.304 32.276 43.315 30.748 44.874 "/></g>
<g fill="#0E837A80" stroke="#0E837A80">
<path d="M 38.500 32.410 L 36.500 34.567 38.500 32.410 L 40.500 30.253 38.500 32.410 "/></g>
<g fill="#0F847BBF" stroke="#0F847BBF">
<path d="M 33.500 37.410 L 31.500 39.567 33.500 37.410 L 35.500 35.253 33.500 37.410 "/></g>
<g fill="#0F847BBF" stroke="#0F847BBF">
<path d="M 52.500 22.410 L 50.500 24.567 52.500 22.410 L 54.500 20.253 52.500 22.410 "/></g>
<g fill="#10837C40" stroke="#10837C40">
<path d="M 42.000 44.888 L 40.500 46.563 42.000 44.888 L 43.500 43.212 42.000 44.888 "/></g>
<g fill="#10837C40" stroke="#10837C40">
<path d="M 52.000 33.888 L 50.500 35.563 52.000 33.888 L 53.500 32.212 52.000 33.888 "/></g>
<g fill="#0E837A80" stroke="#0E837A80">
<path d="M 38.000 48.888 L 36.500 50.563 38.000 48.888 L 39.500 47.212 38.000 48.888 "/></g>
<g fill="#0E837A80" stroke="#0E837A80">
<path d="M 58.000 26.888 L 56.500 28.563 58.000 26.888 L 59.500 25.212 58.000 26.888 "/></g>
<g fill="#0F847BBF" stroke="#0F847BBF">
<path d="M 42.000 48.888 L 40.500 50.563 42.000 48.888 L 43.500 47.212 42.000 48.888 "/></g>
<g fill="#0F847BBF" stroke="#0F847BBF">
<path d="M 45.000 40.888 L 43.500 42.563 45.000 40.888 L 46.500 39.212 45.000 40.888 "/></g>
<g fill="#0F847BBF" stroke="#0F847BBF">
<path d="M 54.000 30.888 L 52.500 32.563 54.000 30.888 L 55.500 29.212 54.000 30.888 "/></g>
<g fill="#0F847BBF" stroke="#0F847BBF">
<path d="M 46.000 23.888 L 44.500 25.563 46.000 23.888 L 47.500 22.212 46.000 23.888 "/></g>
<g fill="#10837C40" stroke="#10837C40">
<path d="M 36.378 54.378 L 35.500 55.256 36.378 54.378 L 37.256 53.500 36.378 54.378 "/></g>
<g fill="#10837C40" stroke="#10837C40">
<path d="M 32.500 49.500 L 34.000 51.000 32.500 49.500 L 31.000 48.000 32.500 49.500 "/></g>
<g fill="#10837C40" stroke="#10837C40">
<path d="M 45.378 44.378 L 44.500 45.256 45.378 44.378 L 46.256 43.500 45.378 44.378 "/></g>
<g fill="#10837C40" stroke="#10837C40">
<path d="M 55.387 20.157 C 56.776 20.963 57.090 20.955 56.578 20.126 C 56.195 19.507 55.346 19.014 54.691 19.030 C 54.036 19.047 54.349 19.554 55.387 20.157 "/></g>
<g fill="#0E837A80" stroke="#0E837A80">
<path d="M 26.378 45.378 L 25.500 46.256 26.378 45.378 L 27.256 44.500 26.378 45.378 "/></g>
<g fill="#0E837A80" stroke="#0E837A80">
<path d="M 48.378 37.378 L 47.500 38.256 48.378 37.378 L 49.256 36.500 48.378 37.378 "/></g>
<g fill="#0E837A80" stroke="#0E837A80">
<path d="M 58.500 22.500 L 60.000 24.000 58.500 22.500 L 57.000 21.000 58.500 22.500 "/></g>
<g fill="#0F847BBF" stroke="#0F847BBF">
<path d="M 34.500 50.500 L 36.000 52.000 34.500 50.500 L 33.000 49.000 34.500 50.500 "/></g>
<g fill="#0C867915" stroke="#0C867915">
<path d="M 52.378 21.378 L 51.500 22.256 52.378 21.378 L 53.256 20.500 52.378 21.378 "/></g>
</svg>
