<?xml version="1.0" encoding="utf-8"?>
<!DOCTYPE svg PUBLIC "-//W3C//DTD SVG 20010904//EN" "http://www.w3.org/TR/2001/REC-SVG-20010904/DTD/svg10.dtd">
<svg version="1.0" xmlns="http://www.w3.org/2000/svg" width="66pt" height="66pt" viewBox="0 0 66 66" style="" preserveAspectRatio="xMidYMid meet">
<g fill="#12535FFF" stroke="#12535FFF">
<path d="M 9.612 5.181 C 9.843 5.555 9.550 6.160 8.961 6.524 C 7.909 7.174 8.228 22.705 9.362 26.000 C 10.019 27.911 12.222 48.247 11.911 49.534 C 11.782 50.065 12.174 51.698 12.780 53.162 C 13.624 55.198 15.132 56.185 19.192 57.358 C 33.458 61.481 32.789 61.445 42.500 58.615 C 47.450 57.172 52.063 55.233 52.750 54.305 C 53.438 53.377 54.000 50.979 54.000 48.976 C 54.000 46.972 54.319 45.014 54.709 44.624 C 55.099 44.234 55.293 42.180 55.140 40.059 C 54.987 37.939 55.350 35.902 55.947 35.533 C 56.544 35.164 56.774 34.444 56.459 33.934 C 56.143 33.423 56.435 27.671 57.107 21.152 C 57.779 14.633 58.042 8.552 57.692 7.639 C 57.341 6.726 57.042 5.742 57.027 5.453 C 57.012 5.164 46.243 4.831 33.095 4.713 C 19.948 4.596 9.380 4.806 9.612 5.181 M 55.008 9.250 C 55.022 11.380 50.945 48.366 50.429 50.791 C 50.161 52.051 49.543 52.836 49.056 52.535 C 48.569 52.234 48.020 52.388 47.835 52.878 C 47.651 53.367 44.238 54.685 40.250 55.807 L 33.000 57.846 25.750 55.807 C 21.763 54.685 18.349 53.367 18.165 52.878 C 17.980 52.388 17.431 52.234 16.944 52.535 C 16.457 52.836 15.839 52.051 15.571 50.791 C 15.055 48.366 10.978 11.380 10.992 9.250 C 10.998 8.288 16.071 8.000 33.000 8.000 C 49.929 8.000 55.002 8.288 55.008 9.250 "/></g>
<g fill="#12535FFF" stroke="#12535FFF">
<path d="M 39.000 18.882 L 35.500 19.500 35.208 27.250 C 34.897 35.505 34.821 35.389 40.250 35.031 C 42.569 34.878 43.000 35.243 43.000 37.366 C 43.000 40.335 42.157 40.986 37.771 41.404 C 35.607 41.610 34.393 42.305 34.183 43.457 C 33.907 44.980 34.409 45.107 38.183 44.474 C 46.376 43.099 47.002 42.587 46.985 37.275 C 46.976 34.649 46.639 32.035 46.235 31.467 C 45.385 30.271 43.502 30.164 42.417 31.250 C 42.004 31.663 40.842 32.000 39.833 32.000 C 38.300 32.000 38.000 31.182 38.000 27.000 C 38.000 22.299 38.154 22.000 40.566 22.000 C 43.782 22.000 47.248 20.210 46.469 18.950 C 45.838 17.928 44.468 17.916 39.000 18.882 "/></g>
<g fill="#12535FFF" stroke="#12535FFF">
<path d="M 28.000 29.892 L 28.000 41.950 25.435 40.975 C 21.866 39.619 20.000 39.758 20.000 41.381 C 20.000 43.047 28.878 45.522 30.180 44.220 C 31.601 42.799 30.739 18.743 29.250 18.248 C 28.296 17.932 28.000 20.690 28.000 29.892 "/></g>
<g fill="#10546040" stroke="#10546040">
<path d="M 11.793 8.541 C 11.495 8.838 21.038 9.082 33.000 9.082 C 44.962 9.082 54.505 8.838 54.207 8.541 C 53.501 7.834 12.499 7.834 11.793 8.541 "/></g>
<g fill="#12525E80" stroke="#12525E80">
<path d="M 38.141 27.250 L 38.282 32.500 38.919 27.250 C 39.269 24.363 39.206 22.000 38.778 22.000 C 38.350 22.000 38.063 24.363 38.141 27.250 "/></g>
</svg>
