<?xml version="1.0" encoding="utf-8"?>
<!DOCTYPE svg PUBLIC "-//W3C//DTD SVG 20010904//EN" "http://www.w3.org/TR/2001/REC-SVG-20010904/DTD/svg10.dtd">
<svg version="1.0" xmlns="http://www.w3.org/2000/svg" width="66pt" height="66pt" viewBox="0 0 66 66" style="" preserveAspectRatio="xMidYMid meet">
<g fill="#0F847BFF" stroke="#0F847BFF">
<path d="M 21.340 2.010 C 12.143 2.999 4.405 5.583 2.501 8.303 C 1.293 10.026 1.000 14.187 1.000 29.588 C 1.000 47.256 1.155 48.927 3.013 51.289 C 6.647 55.909 13.689 57.500 30.500 57.500 C 46.527 57.500 54.174 56.224 58.488 52.830 L 61.000 50.855 61.000 29.542 C 61.000 8.250 60.998 8.229 58.640 6.684 C 52.512 2.668 35.291 0.511 21.340 2.010 M 12.500 17.735 C 22.535 20.653 48.059 19.391 57.250 15.523 C 58.769 14.883 59.000 15.390 59.000 19.370 C 59.000 23.166 58.567 24.238 56.480 25.605 C 48.132 31.075 19.827 31.386 6.750 26.150 C 4.250 25.150 4.000 24.582 4.000 19.918 C 4.000 15.412 4.214 14.877 5.750 15.534 C 6.713 15.945 9.750 16.935 12.500 17.735 M 47.730 5.407 C 53.877 6.726 59.000 9.227 59.000 10.909 C 59.000 11.384 57.538 12.459 55.750 13.299 C 42.942 19.318 5.480 17.447 4.185 10.725 C 3.194 5.576 32.077 2.048 47.730 5.407 M 56.726 51.444 C 53.161 53.780 34.776 56.276 26.500 55.548 C 16.766 54.692 8.908 53.076 6.250 51.385 C 4.465 50.250 4.000 49.029 4.000 45.477 C 4.000 43.015 4.168 41.000 4.374 41.000 C 4.580 41.000 6.718 41.727 9.124 42.616 C 18.720 46.161 48.773 45.454 56.000 41.513 C 58.498 40.151 58.500 40.154 58.800 45.019 C 59.059 49.218 58.774 50.102 56.726 51.444 M 12.500 30.661 C 22.766 33.610 47.081 32.406 57.310 28.441 C 58.928 27.814 59.087 28.257 58.810 32.620 C 58.526 37.096 58.206 37.644 54.949 39.237 C 48.986 42.155 32.460 43.589 21.197 42.166 C 15.888 41.496 9.960 40.172 8.023 39.224 C 4.797 37.645 4.474 37.088 4.190 32.620 C 3.912 28.245 4.067 27.817 5.690 28.482 C 6.685 28.890 9.750 29.871 12.500 30.661 "/></g>
<g fill="#0E837A80" stroke="#0E837A80">
<path d="M 57.627 32.955 C 57.697 35.682 58.035 37.632 58.377 37.289 C 59.266 36.401 59.151 28.000 58.250 27.999 C 57.838 27.999 57.557 30.229 57.627 32.955 "/></g>
<g fill="#10837C40" stroke="#10837C40">
<path d="M 4.141 32.191 C 4.063 34.771 4.346 37.096 4.770 37.358 C 5.193 37.620 5.257 35.509 4.911 32.667 L 4.282 27.500 4.141 32.191 "/></g>
<g fill="#10837C40" stroke="#10837C40">
<path d="M 4.141 19.191 C 4.063 21.771 4.346 24.096 4.770 24.358 C 5.193 24.620 5.257 22.509 4.911 19.667 L 4.282 14.500 4.141 19.191 "/></g>
<g fill="#0F847BBF" stroke="#0F847BBF">
<path d="M 3.500 52.500 L 5.000 54.000 3.500 52.500 L 2.000 51.000 3.500 52.500 "/></g>
<g fill="#0F847BBF" stroke="#0F847BBF">
<path d="M 57.378 50.378 L 56.500 51.256 57.378 50.378 L 58.256 49.500 57.378 50.378 "/></g>
<g fill="#10837C40" stroke="#10837C40">
<path d="M 2.500 52.500 L 4.000 54.000 2.500 52.500 L 1.000 51.000 2.500 52.500 "/></g>
<g fill="#10837C40" stroke="#10837C40">
<path d="M 60.500 7.500 L 62.000 9.000 60.500 7.500 L 59.000 6.000 60.500 7.500 "/></g>
</svg>
