<?xml version="1.0" encoding="utf-8"?>
<!DOCTYPE svg PUBLIC "-//W3C//DTD SVG 20010904//EN" "http://www.w3.org/TR/2001/REC-SVG-20010904/DTD/svg10.dtd">
<svg version="1.0" xmlns="http://www.w3.org/2000/svg" width="66pt" height="66pt" viewBox="0 0 66 66" style="" preserveAspectRatio="xMidYMid meet">
<g fill="#0F847BFF" stroke="#0F847BFF">
<path d="M 7.000 18.500 C 7.000 29.333 7.116 30.000 9.000 30.000 C 10.860 30.000 11.000 29.333 11.000 20.500 L 11.000 11.000 27.221 11.000 L 43.442 11.000 49.221 16.719 C 54.233 21.678 55.000 22.940 55.000 26.219 C 55.000 29.333 55.353 30.000 57.000 30.000 C 58.747 30.000 59.000 29.333 59.000 24.721 C 59.000 19.571 58.847 19.291 52.723 13.221 L 46.446 7.000 26.723 7.000 L 7.000 7.000 7.000 18.500 "/></g>
<g fill="#0F847BFF" stroke="#0F847BFF">
<path d="M 8.873 35.067 C 7.594 36.393 7.208 39.135 7.069 47.877 C 6.900 58.489 6.986 59.000 8.946 59.000 C 10.744 59.000 11.000 58.377 11.000 54.000 C 11.000 49.111 11.067 49.000 14.000 49.000 C 16.933 49.000 17.000 49.111 17.000 54.000 C 17.000 58.630 17.180 59.000 19.434 59.000 C 21.828 59.000 21.872 58.841 22.184 48.998 C 22.358 43.496 22.138 38.876 21.696 38.729 C 21.253 38.583 20.766 37.609 20.612 36.565 C 20.459 35.521 19.471 34.505 18.417 34.307 C 12.984 33.289 10.388 33.496 8.873 35.067 M 16.816 41.259 C 17.101 43.720 16.820 44.000 14.066 44.000 C 10.801 44.000 10.354 43.076 12.067 39.874 C 13.562 37.081 16.431 37.918 16.816 41.259 "/></g>
<g fill="#0F847BFF" stroke="#0F847BFF">
<path d="M 44.000 45.902 L 44.000 59.000 46.500 59.000 C 48.826 59.000 49.000 58.659 49.000 54.108 C 49.000 49.666 49.240 49.156 51.618 48.560 C 53.058 48.198 54.445 48.112 54.701 48.368 C 54.957 48.624 55.960 48.040 56.929 47.071 C 59.221 44.779 59.314 37.308 57.079 35.096 C 56.092 34.119 53.244 33.365 49.733 33.152 L 44.000 32.805 44.000 45.902 M 54.000 41.000 C 54.000 43.533 53.611 44.000 51.500 44.000 C 49.389 44.000 49.000 43.533 49.000 41.000 C 49.000 38.467 49.389 38.000 51.500 38.000 C 53.611 38.000 54.000 38.467 54.000 41.000 "/></g>
<g fill="#0F847BFF" stroke="#0F847BFF">
<path d="M 29.828 34.136 C 26.403 35.390 24.712 39.875 26.130 43.943 C 26.897 46.143 28.208 47.236 31.328 48.276 C 36.468 49.989 37.234 53.302 32.612 53.830 C 30.434 54.078 29.860 53.807 30.276 52.724 C 30.701 51.616 30.218 51.427 28.163 51.894 C 22.410 53.203 26.316 58.692 33.000 58.692 C 39.806 58.692 40.851 56.934 39.802 47.250 C 39.728 46.563 39.099 46.000 38.405 46.000 C 37.711 46.000 36.548 45.438 35.821 44.750 C 35.095 44.063 33.600 43.500 32.500 43.500 C 29.475 43.500 29.709 38.612 32.754 38.180 C 34.107 37.988 35.250 38.488 35.611 39.430 C 35.943 40.293 37.267 41.000 38.555 41.000 C 40.709 41.000 40.814 40.766 39.875 38.073 C 39.211 36.166 37.781 34.771 35.778 34.073 C 34.086 33.483 32.656 33.036 32.601 33.079 C 32.545 33.122 31.298 33.598 29.828 34.136 "/></g>
<g fill="#0F847BBF" stroke="#0F847BBF">
<path d="M 6.215 18.250 L 6.430 30.500 6.747 18.771 L 7.063 7.042 26.782 6.749 L 46.500 6.455 26.250 6.228 L 6.000 6.000 6.215 18.250 "/></g>
<g fill="#0F847BBF" stroke="#0F847BBF">
<path d="M 11.208 20.750 L 11.415 30.500 11.745 21.275 L 12.074 12.049 28.287 11.748 L 44.500 11.447 27.750 11.223 L 11.000 11.000 11.208 20.750 "/></g>
<g fill="#0F847BBF" stroke="#0F847BBF">
<path d="M 6.208 50.250 L 6.000 60.000 9.000 60.000 L 12.000 60.000 11.815 54.250 L 11.630 48.500 11.263 53.750 C 10.957 58.123 10.576 59.000 8.985 59.000 C 7.266 59.000 7.042 58.073 6.745 49.750 L 6.415 40.500 6.208 50.250 "/></g>
<g fill="#0E837A80" stroke="#0E837A80">
<path d="M 53.000 13.000 L 60.000 20.000 53.000 13.000 L 46.000 6.000 53.000 13.000 "/></g>
<g fill="#10837C40" stroke="#10837C40">
<path d="M 49.000 17.000 L 54.000 22.000 49.000 17.000 L 44.000 12.000 49.000 17.000 "/></g>
</svg>
