<?xml version="1.0" encoding="utf-8"?>
<!DOCTYPE svg PUBLIC "-//W3C//DTD SVG 20010904//EN" "http://www.w3.org/TR/2001/REC-SVG-20010904/DTD/svg10.dtd">
<svg version="1.0" xmlns="http://www.w3.org/2000/svg" width="50pt" height="50pt" viewBox="0 0 50 50" style="" preserveAspectRatio="xMidYMid meet">
<g fill="#F17A29FF" stroke="#F17A29FF">
<path d="M 13.479 4.664 C 11.286 6.857 12.231 11.682 15.494 14.947 C 18.512 17.967 20.143 16.856 17.257 13.746 C 15.167 11.493 14.661 10.004 14.882 6.750 C 14.983 5.251 16.065 5.000 22.418 5.000 C 26.498 5.000 30.548 5.273 31.418 5.607 C 33.768 6.509 33.339 9.443 30.336 13.013 C 28.178 15.578 27.940 16.336 29.086 17.005 C 29.864 17.460 31.928 18.882 33.673 20.166 C 40.126 24.914 42.049 34.507 37.587 39.694 C 35.199 42.471 35.050 42.500 23.500 42.500 C 11.830 42.500 11.826 42.499 9.305 39.568 C 7.132 37.042 6.843 35.910 7.218 31.390 C 7.525 27.684 8.452 25.096 10.377 22.572 C 13.370 18.648 12.567 17.663 9.299 21.250 C 6.059 24.807 4.821 27.881 4.751 32.541 C 4.613 41.644 10.027 45.340 23.500 45.340 C 33.441 45.340 37.739 43.855 40.648 39.414 C 44.457 33.602 41.023 22.038 34.155 17.549 L 31.171 15.598 33.085 13.164 C 35.408 10.211 35.549 6.692 33.429 4.571 C 31.121 2.264 15.808 2.335 13.479 4.664 "/></g>
<g fill="#F17A29FF" stroke="#F17A29FF">
<path d="M 18.000 21.695 C 18.000 22.078 19.209 23.653 20.687 25.195 L 23.374 28.000 20.687 28.000 C 19.209 28.000 18.000 28.450 18.000 29.000 C 18.000 29.550 19.125 30.000 20.500 30.000 C 22.056 30.000 23.000 30.567 23.000 31.500 C 23.000 32.433 22.056 33.000 20.500 33.000 C 19.125 33.000 18.000 33.450 18.000 34.000 C 18.000 34.550 19.125 35.000 20.500 35.000 C 22.515 35.000 23.000 35.496 23.000 37.559 C 23.000 39.010 23.433 39.851 24.000 39.500 C 24.550 39.160 25.000 38.009 25.000 36.941 C 25.000 35.667 25.687 35.000 27.000 35.000 C 28.100 35.000 29.000 34.550 29.000 34.000 C 29.000 33.450 28.100 33.000 27.000 33.000 C 25.889 33.000 25.000 32.333 25.000 31.500 C 25.000 30.667 25.889 30.000 27.000 30.000 C 28.100 30.000 29.000 29.550 29.000 29.000 C 29.000 28.450 28.100 28.000 27.000 28.000 C 24.394 28.000 24.469 27.622 27.722 24.369 C 31.045 21.046 29.044 19.670 25.598 22.908 L 23.338 25.031 21.514 23.016 C 19.698 21.009 18.000 20.371 18.000 21.695 "/></g>
<g fill="#F27929BF" stroke="#F27929BF">
<path d="M 20.000 30.761 C 22.333 31.217 22.367 31.303 20.500 32.054 C 18.602 32.818 18.615 32.863 20.750 32.930 C 22.115 32.972 23.000 32.410 23.000 31.500 C 23.000 30.497 22.088 30.045 20.250 30.136 C 17.536 30.271 17.532 30.279 20.000 30.761 "/></g>
<g fill="#EF782840" stroke="#EF782840">
<path d="M 25.116 37.250 C 25.198 38.844 25.362 39.008 25.677 37.811 C 25.923 36.883 26.883 35.923 27.811 35.677 C 29.008 35.362 28.844 35.198 27.250 35.116 C 25.518 35.027 25.027 35.518 25.116 37.250 "/></g>
<g fill="#EF782840" stroke="#EF782840">
<path d="M 27.076 25.555 C 25.105 27.543 24.964 28.000 26.326 28.000 C 27.247 28.000 27.891 27.663 27.759 27.250 C 27.626 26.838 27.963 25.737 28.509 24.805 C 29.054 23.872 28.409 24.210 27.076 25.555 "/></g>
<g fill="#EF782840" stroke="#EF782840">
<path d="M 17.408 34.225 C 17.550 34.926 18.642 35.468 19.833 35.429 C 21.343 35.379 21.419 35.303 20.083 35.179 C 19.029 35.080 17.938 34.539 17.658 33.975 C 17.379 33.411 17.266 33.524 17.408 34.225 "/></g>
<g fill="#F27929BF" stroke="#F27929BF">
<path d="M 27.000 30.110 C 24.628 30.765 24.615 30.806 26.750 30.900 C 27.988 30.955 29.113 30.644 29.250 30.209 C 29.388 29.774 28.375 29.729 27.000 30.110 "/></g>
<g fill="#F27929BF" stroke="#F27929BF">
<path d="M 9.405 20.200 L 7.500 22.400 10.385 20.200 C 11.972 18.990 12.829 18.000 12.290 18.000 C 11.751 18.000 10.453 18.990 9.405 20.200 "/></g>
<g fill="#EF782840" stroke="#EF782840">
<path d="M 20.000 27.017 C 18.735 27.820 18.788 27.972 20.333 27.985 C 21.342 27.993 22.017 27.564 21.833 27.032 C 21.621 26.416 20.955 26.410 20.000 27.017 "/></g>
<g fill="#EF782840" stroke="#EF782840">
<path d="M 35.000 22.000 L 37.000 24.000 35.000 22.000 L 33.000 20.000 35.000 22.000 "/></g>
<g fill="#EF782840" stroke="#EF782840">
<path d="M 26.000 21.888 L 24.500 23.563 26.000 21.888 L 27.500 20.212 26.000 21.888 "/></g>
<g fill="#EF782840" stroke="#EF782840">
<path d="M 9.000 19.888 L 7.500 21.563 9.000 19.888 L 10.500 18.212 9.000 19.888 "/></g>
<g fill="#EF782840" stroke="#EF782840">
<path d="M 18.492 16.147 C 18.604 17.666 18.904 17.965 19.441 17.096 C 19.873 16.397 19.799 15.399 19.277 14.877 C 18.680 14.280 18.389 14.749 18.492 16.147 "/></g>
<g fill="#F27929BF" stroke="#F27929BF">
<path d="M 22.000 23.000 L 24.000 25.000 22.000 23.000 L 20.000 21.000 22.000 23.000 "/></g>
<g fill="#EF782840" stroke="#EF782840">
<path d="M 11.378 22.378 L 10.500 23.256 11.378 22.378 L 12.256 21.500 11.378 22.378 "/></g>
<g fill="#EF782840" stroke="#EF782840">
<path d="M 37.500 19.500 L 39.000 21.000 37.500 19.500 L 36.000 18.000 37.500 19.500 "/></g>
<g fill="#EF782840" stroke="#EF782840">
<path d="M 27.030 15.691 C 27.014 16.346 27.507 17.195 28.126 17.578 C 28.955 18.090 28.963 17.776 28.157 16.387 C 27.554 15.349 27.047 15.036 27.030 15.691 "/></g>
<g fill="#F27929BF" stroke="#F27929BF">
<path d="M 39.378 41.378 L 38.500 42.256 39.378 41.378 L 40.256 40.500 39.378 41.378 "/></g>
<g fill="#F27929BF" stroke="#F27929BF">
<path d="M 7.500 41.500 L 9.000 43.000 7.500 41.500 L 6.000 40.000 7.500 41.500 "/></g>
<g fill="#F27929BF" stroke="#F27929BF">
<path d="M 11.378 21.378 L 10.500 22.256 11.378 21.378 L 12.256 20.500 11.378 21.378 "/></g>
<g fill="#F27929BF" stroke="#F27929BF">
<path d="M 30.378 12.378 L 29.500 13.256 30.378 12.378 L 31.256 11.500 30.378 12.378 "/></g>
</svg>
