<?xml version="1.0" encoding="utf-8"?>
<!DOCTYPE svg PUBLIC "-//W3C//DTD SVG 20010904//EN" "http://www.w3.org/TR/2001/REC-SVG-20010904/DTD/svg10.dtd">
<svg version="1.0" xmlns="http://www.w3.org/2000/svg" width="50pt" height="50pt" viewBox="0 0 50 50" style="" preserveAspectRatio="xMidYMid meet">
<g fill="#C8062EFF" stroke="#C8062EFF">
<path d="M 19.000 24.974 C 19.000 31.774 19.078 31.989 22.125 33.565 C 25.037 35.071 25.479 35.057 28.625 33.363 C 31.947 31.574 32.000 31.439 32.000 24.773 L 32.000 18.000 25.500 18.000 L 19.000 18.000 19.000 24.974 "/></g>
<g fill="#C8062EFF" stroke="#C8062EFF">
<path d="M 24.039 10.250 C 24.417 14.919 24.295 14.996 16.250 15.116 C 11.988 15.180 9.400 15.457 10.500 15.732 C 11.600 16.007 12.831 16.742 13.235 17.366 C 13.761 18.179 13.974 18.146 13.985 17.250 C 13.993 16.563 14.450 16.000 15.000 16.000 C 15.604 16.000 16.006 20.260 16.015 26.750 C 16.026 34.060 16.341 37.020 17.000 36.000 C 17.828 34.718 17.972 34.754 17.985 36.250 C 18.002 38.221 19.965 38.693 20.063 36.750 C 20.098 36.063 20.571 36.614 21.115 37.976 C 21.922 39.998 22.274 40.181 23.036 38.976 C 23.821 37.735 23.972 37.778 23.985 39.250 C 23.993 40.213 24.450 41.000 25.000 41.000 C 25.550 41.000 26.000 40.270 26.000 39.378 C 26.000 38.049 26.271 37.980 27.500 39.000 C 28.758 40.044 29.000 39.882 29.000 38.000 C 29.000 36.118 29.242 35.956 30.500 37.000 C 31.742 38.031 32.003 37.923 32.015 36.372 C 32.028 34.798 32.185 34.738 33.000 36.000 C 33.759 37.174 33.973 36.918 33.985 34.820 L 34.000 32.141 29.549 34.628 L 25.098 37.116 21.057 34.808 L 17.015 32.500 17.008 24.750 L 17.000 17.000 24.954 17.000 L 32.909 17.000 33.258 23.750 L 33.608 30.500 33.804 23.250 C 34.004 15.861 35.546 13.365 36.277 19.250 L 36.680 22.500 36.840 19.320 C 36.963 16.881 37.525 16.038 39.250 15.706 C 40.488 15.467 37.984 15.211 33.687 15.136 C 26.891 15.018 25.897 14.772 26.052 13.250 C 26.395 9.884 25.991 8.000 24.928 8.000 C 24.339 8.000 23.939 9.013 24.039 10.250 "/></g>
<g fill="#C8062EFF" stroke="#C8062EFF">
<path d="M 12.153 26.000 C 11.988 32.921 12.964 39.000 14.239 39.000 C 14.820 39.000 14.914 37.883 14.471 36.250 C 14.061 34.738 13.401 30.575 13.005 27.000 L 12.284 20.500 12.153 26.000 "/></g>
<g fill="#C9072EC0" stroke="#C9072EC0">
<path d="M 33.983 23.500 C 33.699 27.900 33.782 32.625 34.167 34.000 C 34.552 35.375 34.785 31.775 34.684 26.000 L 34.500 15.500 33.983 23.500 "/></g>
<g fill="#C9072EC0" stroke="#C9072EC0">
<path d="M 19.000 44.118 C 16.870 44.495 19.381 44.788 25.417 44.868 C 30.871 44.941 35.131 44.798 34.884 44.551 C 34.114 43.780 22.676 43.469 19.000 44.118 "/></g>
<g fill="#C7083040" stroke="#C7083040">
<path d="M 15.000 25.854 C 14.725 30.448 14.841 34.723 15.258 35.354 C 15.675 35.984 15.900 32.225 15.758 27.000 L 15.499 17.500 15.000 25.854 "/></g>
<g fill="#C8062EFF" stroke="#C8062EFF">
<path d="M 36.234 28.500 C 36.238 33.428 37.421 37.692 38.368 36.190 C 38.821 35.469 38.725 33.669 38.152 32.190 C 37.580 30.710 36.914 28.600 36.672 27.500 C 36.406 26.290 36.233 26.686 36.234 28.500 "/></g>
<g fill="#C9072EC0" stroke="#C9072EC0">
<path d="M 18.113 25.500 C 17.923 29.900 18.068 32.778 18.435 31.895 C 18.803 31.012 18.958 27.412 18.781 23.895 L 18.458 17.500 18.113 25.500 "/></g>
<g fill="#C7083040" stroke="#C7083040">
<path d="M 32.189 26.079 C 32.057 29.971 31.471 32.119 30.250 33.179 C 28.670 34.551 28.723 34.559 30.797 33.260 C 32.836 31.982 33.054 31.184 32.736 26.160 L 32.378 20.500 32.189 26.079 "/></g>
<g fill="#C7083040" stroke="#C7083040">
<path d="M 17.152 26.191 C 17.069 29.321 17.338 32.091 17.750 32.346 C 18.163 32.602 18.231 30.041 17.902 26.655 L 17.305 20.500 17.152 26.191 "/></g>
<g fill="#C9072EC0" stroke="#C9072EC0">
<path d="M 26.000 39.441 C 26.000 40.298 25.523 41.000 24.941 41.000 C 24.359 41.000 24.181 41.483 24.545 42.073 C 24.962 42.748 25.731 42.401 26.615 41.139 C 27.514 39.856 27.657 38.906 27.011 38.507 C 26.455 38.163 26.000 38.584 26.000 39.441 "/></g>
<g fill="#C7062E80" stroke="#C7062E80">
<path d="M 15.602 43.836 C 15.318 44.295 16.753 44.347 18.793 43.951 L 22.500 43.230 19.309 43.115 C 17.554 43.052 15.886 43.376 15.602 43.836 "/></g>
<g fill="#C9072EC0" stroke="#C9072EC0">
<path d="M 29.000 37.289 C 29.000 38.133 29.707 38.719 30.571 38.593 C 31.998 38.383 31.998 38.243 30.571 37.059 C 29.259 35.970 29.000 36.008 29.000 37.289 "/></g>
<g fill="#C7083040" stroke="#C7083040">
<path d="M 21.441 34.448 C 22.509 35.301 23.859 35.982 24.441 35.960 C 25.024 35.938 24.150 35.239 22.500 34.408 C 19.777 33.035 19.679 33.038 21.441 34.448 "/></g>
<g fill="#C9072EC0" stroke="#C9072EC0">
<path d="M 12.729 18.604 C 11.608 19.725 11.865 21.202 13.053 20.467 C 13.632 20.110 13.960 19.380 13.782 18.846 C 13.604 18.312 13.130 18.203 12.729 18.604 "/></g>
<g fill="#C7083040" stroke="#C7083040">
<path d="M 29.378 39.378 L 28.500 40.256 29.378 39.378 L 30.256 38.500 29.378 39.378 "/></g>
<g fill="#C7083040" stroke="#C7083040">
<path d="M 7.422 15.126 C 6.910 15.955 7.224 15.963 8.613 15.157 C 9.651 14.554 9.964 14.047 9.309 14.030 C 8.654 14.014 7.805 14.507 7.422 15.126 "/></g>
<g fill="#C7062E80" stroke="#C7062E80">
<path d="M 19.000 38.047 C 18.010 38.656 17.925 38.975 18.750 38.985 C 19.438 38.993 20.113 38.578 20.250 38.062 C 20.404 37.485 19.924 37.479 19.000 38.047 "/></g>
<g fill="#C7062E80" stroke="#C7062E80">
<path d="M 40.387 15.157 C 41.776 15.963 42.090 15.955 41.578 15.126 C 41.195 14.507 40.346 14.014 39.691 14.030 C 39.036 14.047 39.349 14.554 40.387 15.157 "/></g>
</svg>
