<?xml version="1.0" encoding="utf-8"?>
<!DOCTYPE svg PUBLIC "-//W3C//DTD SVG 20010904//EN" "http://www.w3.org/TR/2001/REC-SVG-20010904/DTD/svg10.dtd">
<svg version="1.0" xmlns="http://www.w3.org/2000/svg" width="50pt" height="50pt" viewBox="0 0 50 50" style="" preserveAspectRatio="xMidYMid meet">
<g fill="#0F847BFF" stroke="#0F847BFF">
<path d="M 20.663 11.480 C 18.552 12.219 14.840 14.897 12.413 17.430 C 8.299 21.723 8.000 22.404 8.000 27.486 C 8.000 32.023 8.263 32.836 9.566 32.336 C 10.529 31.967 12.357 32.906 14.316 34.777 C 20.606 40.785 29.394 40.785 35.684 34.777 C 37.643 32.906 39.471 31.967 40.434 32.336 C 41.737 32.836 42.000 32.023 42.000 27.486 C 42.000 22.427 41.694 21.720 37.750 17.653 C 31.195 10.895 26.831 9.319 20.663 11.480 M 37.250 21.054 C 40.866 22.057 41.000 22.253 41.000 26.547 C 41.000 28.996 40.888 30.995 40.750 30.989 C 40.613 30.983 38.291 30.308 35.591 29.489 C 29.455 27.628 21.087 27.601 14.250 29.421 L 9.000 30.819 9.000 26.448 C 9.000 21.764 9.355 21.522 19.000 19.647 C 22.391 18.988 32.654 19.779 37.250 21.054 M 32.000 30.984 C 32.000 31.526 30.663 33.438 29.029 35.234 L 26.059 38.500 26.029 34.250 C 26.001 30.188 26.133 30.000 29.000 30.000 C 30.650 30.000 32.000 30.443 32.000 30.984 M 23.971 34.250 L 23.941 38.500 20.971 35.234 C 17.224 31.116 17.230 30.000 21.000 30.000 C 23.867 30.000 23.999 30.188 23.971 34.250 M 31.000 17.174 C 31.000 17.628 29.875 18.000 28.500 18.000 C 26.358 18.000 26.000 17.545 26.000 14.826 L 26.000 11.651 28.500 14.000 C 29.875 15.292 31.000 16.720 31.000 17.174 M 21.468 17.823 L 18.799 17.500 21.149 14.511 L 23.500 11.521 23.819 14.834 C 24.114 17.901 23.940 18.122 21.468 17.823 M 33.924 33.510 L 31.500 36.020 32.355 33.510 C 32.825 32.130 33.916 31.000 34.779 31.000 C 35.978 31.000 35.776 31.592 33.924 33.510 M 17.645 33.510 L 18.500 36.020 16.076 33.510 C 14.224 31.592 14.022 31.000 15.221 31.000 C 16.084 31.000 17.175 32.130 17.645 33.510 "/></g>
<g fill="#0F847BBF" stroke="#0F847BBF">
<path d="M 42.098 26.345 L 42.695 32.500 42.848 26.809 C 42.931 23.679 42.663 20.909 42.250 20.654 C 41.838 20.398 41.769 22.959 42.098 26.345 "/></g>
<g fill="#0F847BBF" stroke="#0F847BBF">
<path d="M 7.706 20.627 C 7.318 21.016 7.073 23.846 7.162 26.917 L 7.324 32.500 7.868 26.211 C 8.167 22.752 8.094 20.239 7.706 20.627 "/></g>
<g fill="#0F847BBF" stroke="#0F847BBF">
<path d="M 39.984 26.250 C 39.710 28.863 39.851 31.000 40.298 31.000 C 40.744 31.000 40.968 28.863 40.796 26.250 L 40.482 21.500 39.984 26.250 "/></g>
<g fill="#0F847BBF" stroke="#0F847BBF">
<path d="M 18.000 24.000 C 18.000 25.100 18.188 26.000 18.418 26.000 C 18.648 26.000 19.661 26.301 20.668 26.670 C 22.419 27.310 22.423 27.251 20.748 25.338 C 19.784 24.238 19.297 23.037 19.664 22.669 C 20.032 22.301 19.808 22.000 19.167 22.000 C 18.525 22.000 18.000 22.900 18.000 24.000 "/></g>
<g fill="#0F847BFF" stroke="#0F847BFF">
<path d="M 31.882 22.750 C 31.782 23.438 31.700 24.450 31.700 25.000 C 31.700 25.550 31.768 25.464 31.850 24.809 C 31.934 24.143 32.647 24.473 33.468 25.559 C 34.276 26.626 34.951 27.024 34.968 26.441 C 35.018 24.790 32.094 21.293 31.882 22.750 "/></g>
<g fill="#10837C40" stroke="#10837C40">
<path d="M 26.160 33.250 C 26.004 36.913 27.168 38.155 28.595 35.845 C 29.022 35.155 28.871 34.961 28.219 35.364 C 27.541 35.784 26.977 34.803 26.725 32.769 C 26.323 29.527 26.319 29.531 26.160 33.250 "/></g>
<g fill="#0F847BFF" stroke="#0F847BFF">
<path d="M 25.351 23.000 C 24.407 25.187 24.505 25.461 26.136 25.187 C 27.161 25.015 28.000 24.426 28.000 23.878 C 28.000 23.330 27.520 23.179 26.933 23.541 C 26.297 23.935 25.980 23.454 26.148 22.350 C 26.313 21.265 25.984 21.533 25.351 23.000 "/></g>
<g fill="#0F847BFF" stroke="#0F847BFF">
<path d="M 13.915 24.750 L 14.658 27.500 15.190 24.750 C 15.547 22.910 15.301 22.000 14.448 22.000 C 13.544 22.000 13.389 22.800 13.915 24.750 "/></g>
<g fill="#0E837A80" stroke="#0E837A80">
<path d="M 13.086 25.250 C 13.039 26.763 13.411 28.000 13.914 28.000 C 14.444 28.000 14.480 26.847 13.999 25.250 L 13.172 22.500 13.086 25.250 "/></g>
<g fill="#0F847BFF" stroke="#0F847BFF">
<path d="M 35.969 25.250 L 36.873 27.500 36.937 25.250 C 36.971 24.013 36.565 23.000 36.032 23.000 C 35.427 23.000 35.404 23.844 35.969 25.250 "/></g>
<g fill="#10837C40" stroke="#10837C40">
<path d="M 22.211 26.598 C 21.147 27.754 21.204 28.000 22.534 28.000 C 23.421 28.000 24.001 27.369 23.823 26.598 C 23.546 25.396 23.317 25.396 22.211 26.598 "/></g>
<g fill="#0F847BBF" stroke="#0F847BBF">
<path d="M 31.510 21.984 C 31.165 22.543 31.239 23.563 31.675 24.250 C 32.269 25.187 32.472 25.124 32.484 24.000 C 32.493 23.175 32.950 22.484 33.500 22.464 C 34.050 22.443 33.969 22.099 33.319 21.697 C 32.670 21.296 31.856 21.425 31.510 21.984 "/></g>
<g fill="#0E837A80" stroke="#0E837A80">
<path d="M 24.667 25.667 C 23.650 26.683 23.872 28.000 25.059 28.000 C 25.641 28.000 25.864 27.588 25.553 27.085 C 25.242 26.582 25.553 25.943 26.244 25.664 C 26.938 25.384 27.016 25.123 26.417 25.079 C 25.821 25.036 25.033 25.300 24.667 25.667 "/></g>
<g fill="#10837C40" stroke="#10837C40">
<path d="M 32.794 33.613 C 32.524 35.096 32.610 35.096 33.872 33.613 C 34.700 32.641 34.816 32.000 34.166 32.000 C 33.573 32.000 32.955 32.726 32.794 33.613 "/></g>
<g fill="#10837C40" stroke="#10837C40">
<path d="M 26.554 26.913 C 26.167 27.538 26.629 28.000 27.641 28.000 C 28.908 28.000 29.096 27.696 28.313 26.913 C 27.530 26.130 27.038 26.130 26.554 26.913 "/></g>
<g fill="#10837C40" stroke="#10837C40">
<path d="M 15.000 31.800 C 15.000 32.460 15.540 33.000 16.200 33.000 C 17.133 33.000 17.133 32.733 16.200 31.800 C 15.267 30.867 15.000 30.867 15.000 31.800 "/></g>
<g fill="#10837C40" stroke="#10837C40">
<path d="M 37.387 29.157 C 38.776 29.963 39.090 29.955 38.578 29.126 C 38.195 28.507 37.346 28.014 36.691 28.030 C 36.036 28.047 36.349 28.554 37.387 29.157 "/></g>
<g fill="#10837C40" stroke="#10837C40">
<path d="M 34.750 26.666 C 34.338 27.033 34.030 27.821 34.066 28.417 C 34.102 29.013 34.439 28.712 34.816 27.750 C 35.192 26.787 35.163 26.300 34.750 26.666 "/></g>
<g fill="#10837C40" stroke="#10837C40">
<path d="M 12.422 22.126 C 11.910 22.955 12.224 22.963 13.613 22.157 C 14.651 21.554 14.964 21.047 14.309 21.030 C 13.654 21.014 12.805 21.507 12.422 22.126 "/></g>
<g fill="#10837C40" stroke="#10837C40">
<path d="M 31.000 21.200 C 31.000 22.133 31.267 22.133 32.200 21.200 C 33.133 20.267 33.133 20.000 32.200 20.000 C 31.540 20.000 31.000 20.540 31.000 21.200 "/></g>
<g fill="#0F847BBF" stroke="#0F847BBF">
<path d="M 27.800 26.200 C 28.733 27.133 29.000 27.133 29.000 26.200 C 29.000 25.540 28.460 25.000 27.800 25.000 C 26.867 25.000 26.867 25.267 27.800 26.200 "/></g>
<g fill="#0F847BBF" stroke="#0F847BBF">
<path d="M 25.422 21.874 C 25.805 22.493 26.654 22.986 27.309 22.970 C 27.964 22.953 27.651 22.446 26.613 21.843 C 25.224 21.037 24.910 21.045 25.422 21.874 "/></g>
<g fill="#0E837A80" stroke="#0E837A80">
<path d="M 20.650 23.758 C 20.274 24.365 20.385 25.120 20.896 25.436 C 21.407 25.751 21.714 25.255 21.578 24.332 C 21.424 23.281 21.077 23.066 20.650 23.758 "/></g>
<g fill="#0E837A80" stroke="#0E837A80">
<path d="M 35.500 14.500 L 37.000 16.000 35.500 14.500 L 34.000 13.000 35.500 14.500 "/></g>
<g fill="#0C86792A" stroke="#0C86792A">
<path d="M 33.564 22.104 C 33.880 22.615 34.635 22.726 35.242 22.350 C 35.934 21.923 35.719 21.576 34.668 21.422 C 33.745 21.286 33.249 21.593 33.564 22.104 "/></g>
</svg>
