<?xml version="1.0" encoding="utf-8"?>
<!DOCTYPE svg PUBLIC "-//W3C//DTD SVG 20010904//EN" "http://www.w3.org/TR/2001/REC-SVG-20010904/DTD/svg10.dtd">
<svg version="1.0" xmlns="http://www.w3.org/2000/svg" width="602pt" height="482pt" viewBox="0 0 602 482" style="" preserveAspectRatio="xMidYMid meet">
<g fill="#DAE1EDFF" stroke="#DAE1EDFF">
<path d="M 270.765 200.569 C 270.538 200.796 238.802 211.692 200.241 224.783 L 130.130 248.586 152.565 259.790 C 164.904 265.952 174.990 271.333 174.977 271.747 C 174.964 272.161 159.907 281.945 141.516 293.489 C 123.125 305.032 108.397 314.765 108.789 315.117 C 109.180 315.469 124.233 320.643 142.239 326.614 L 174.979 337.470 175.239 379.874 L 175.500 422.278 243.500 443.626 C 280.900 455.368 312.400 465.013 313.500 465.060 C 314.600 465.107 346.775 455.293 385.000 443.251 L 454.500 421.356 454.761 379.413 L 455.021 337.470 487.761 326.614 C 505.767 320.643 520.818 315.471 521.208 315.121 C 522.118 314.302 455.992 272.599 454.000 272.735 C 453.175 272.792 421.694 282.527 384.043 294.370 C 343.816 307.022 315.156 315.551 314.543 315.052 C 313.969 314.584 283.125 304.704 246.000 293.095 C 208.875 281.486 177.825 271.726 177.000 271.405 C 176.100 271.055 177.873 270.078 181.430 268.963 C 184.692 267.941 187.729 267.333 188.180 267.611 C 188.631 267.890 189.000 267.593 189.000 266.952 C 189.000 266.311 189.675 266.045 190.500 266.362 C 191.325 266.678 192.000 266.546 192.000 266.068 C 192.000 265.179 201.497 262.415 203.750 262.648 C 204.438 262.719 205.000 262.330 205.000 261.782 C 205.000 261.234 205.675 261.045 206.500 261.362 C 207.325 261.678 208.000 261.453 208.000 260.862 C 208.000 260.270 208.675 260.045 209.500 260.362 C 210.325 260.678 211.000 260.551 211.000 260.080 C 211.000 259.233 217.330 257.498 219.750 257.683 C 220.438 257.735 221.000 257.330 221.000 256.782 C 221.000 256.234 221.675 256.045 222.500 256.362 C 223.325 256.678 224.000 256.453 224.000 255.862 C 224.000 255.270 224.675 255.045 225.500 255.362 C 226.325 255.678 227.000 255.586 227.000 255.158 C 227.000 254.322 236.668 251.436 238.750 251.649 C 239.438 251.720 240.000 251.330 240.000 250.782 C 240.000 250.234 240.675 250.045 241.500 250.362 C 242.325 250.678 243.000 250.453 243.000 249.862 C 243.000 249.270 243.675 249.045 244.500 249.362 C 245.325 249.678 246.000 249.551 246.000 249.080 C 246.000 248.233 252.330 246.498 254.750 246.683 C 255.438 246.735 256.000 246.330 256.000 245.782 C 256.000 245.234 256.675 245.045 257.500 245.362 C 258.325 245.678 259.000 245.453 259.000 244.862 C 259.000 244.270 259.675 244.045 260.500 244.362 C 261.325 244.678 262.000 244.551 262.000 244.080 C 262.000 243.233 268.330 241.498 270.750 241.683 C 271.438 241.735 272.000 241.330 272.000 240.782 C 272.000 240.234 272.675 240.045 273.500 240.362 C 274.325 240.678 275.000 240.453 275.000 239.862 C 275.000 239.270 275.675 239.045 276.500 239.362 C 277.325 239.678 278.000 239.546 278.000 239.068 C 278.000 238.179 287.497 235.415 289.750 235.648 C 290.438 235.719 291.000 235.330 291.000 234.782 C 291.000 234.234 291.675 234.045 292.500 234.362 C 293.325 234.678 294.000 234.453 294.000 233.862 C 294.000 233.270 294.675 233.045 295.500 233.362 C 296.325 233.678 297.000 233.551 297.000 233.080 C 297.000 232.233 303.330 230.498 305.750 230.683 C 306.438 230.735 307.000 230.330 307.000 229.782 C 307.000 229.234 307.675 229.045 308.500 229.362 C 309.325 229.678 310.000 229.520 310.000 229.010 C 310.000 226.857 321.027 229.948 384.757 249.968 L 451.897 271.060 474.699 259.584 C 487.239 253.272 496.872 248.083 496.105 248.054 C 495.338 248.024 463.613 237.424 425.605 224.498 C 387.597 211.572 355.975 200.997 355.334 200.998 C 354.692 200.999 345.242 206.623 334.334 213.497 C 323.425 220.370 313.971 225.995 313.323 225.997 C 312.676 225.998 302.929 220.185 291.662 213.078 C 280.395 205.971 270.991 200.342 270.765 200.569 "/></g>
<g fill="#B7BFCDFF" stroke="#B7BFCDFF">
<path d="M 310.000 229.016 C 310.000 229.523 309.325 229.678 308.500 229.362 C 307.675 229.045 307.000 229.234 307.000 229.782 C 307.000 230.330 306.438 230.735 305.750 230.683 C 303.330 230.498 297.000 232.233 297.000 233.080 C 297.000 233.551 296.325 233.678 295.500 233.362 C 294.675 233.045 294.000 233.270 294.000 233.862 C 294.000 234.453 293.325 234.678 292.500 234.362 C 291.675 234.045 291.000 234.234 291.000 234.782 C 291.000 235.330 290.438 235.719 289.750 235.648 C 287.497 235.415 278.000 238.179 278.000 239.068 C 278.000 239.546 277.325 239.678 276.500 239.362 C 275.675 239.045 275.000 239.270 275.000 239.862 C 275.000 240.453 274.325 240.678 273.500 240.362 C 272.675 240.045 272.000 240.234 272.000 240.782 C 272.000 241.330 271.438 241.735 270.750 241.683 C 268.330 241.498 262.000 243.233 262.000 244.080 C 262.000 244.551 261.325 244.678 260.500 244.362 C 259.675 244.045 259.000 244.270 259.000 244.862 C 259.000 245.453 258.325 245.678 257.500 245.362 C 256.675 245.045 256.000 245.234 256.000 245.782 C 256.000 246.330 255.438 246.735 254.750 246.683 C 252.330 246.498 246.000 248.233 246.000 249.080 C 246.000 249.551 245.325 249.678 244.500 249.362 C 243.675 249.045 243.000 249.270 243.000 249.862 C 243.000 250.453 242.325 250.678 241.500 250.362 C 240.675 250.045 240.000 250.234 240.000 250.782 C 240.000 251.330 239.438 251.720 238.750 251.649 C 236.668 251.436 227.000 254.322 227.000 255.158 C 227.000 255.586 226.325 255.678 225.500 255.362 C 224.675 255.045 224.000 255.270 224.000 255.862 C 224.000 256.453 223.325 256.678 222.500 256.362 C 221.675 256.045 221.000 256.234 221.000 256.782 C 221.000 257.330 220.438 257.735 219.750 257.683 C 217.330 257.498 211.000 259.233 211.000 260.080 C 211.000 260.551 210.325 260.678 209.500 260.362 C 208.675 260.045 208.000 260.270 208.000 260.862 C 208.000 261.453 207.325 261.678 206.500 261.362 C 205.675 261.045 205.000 261.234 205.000 261.782 C 205.000 262.330 204.438 262.719 203.750 262.648 C 201.497 262.415 192.000 265.179 192.000 266.068 C 192.000 266.546 191.325 266.678 190.500 266.362 C 189.675 266.045 189.000 266.311 189.000 266.952 C 189.000 267.593 188.631 267.890 188.180 267.611 C 187.729 267.333 184.692 267.941 181.430 268.963 C 177.878 270.076 176.102 271.055 177.000 271.403 C 177.825 271.723 209.204 281.594 246.730 293.338 L 314.961 314.692 315.014 271.596 L 315.067 228.500 312.534 228.297 C 311.140 228.185 310.000 228.509 310.000 229.016 "/></g>
<g fill="#6E7D9B66" stroke="#6E7D9B66">
<path d="M 315.239 272.214 L 315.500 315.664 380.000 295.328 C 415.475 284.143 446.975 274.223 450.000 273.284 C 454.351 271.934 454.978 271.503 453.000 271.222 C 451.625 271.026 421.025 261.609 385.000 250.295 C 348.975 238.981 318.483 229.508 317.239 229.244 L 314.979 228.763 315.239 272.214 "/></g>
<g fill="#B7BFCDFF" stroke="#B7BFCDFF">
<path d="M 316.634 25.750 C 318.667 28.913 321.165 32.903 322.186 34.619 L 324.043 37.737 336.771 33.874 C 343.772 31.749 349.950 30.018 350.500 30.027 C 351.050 30.036 345.763 32.569 338.750 35.656 C 324.249 42.038 325.263 40.354 327.325 54.632 L 328.500 62.765 345.500 44.750 C 354.850 34.842 362.614 26.455 362.752 26.111 C 362.965 25.584 318.037 19.905 314.219 19.976 C 313.450 19.991 314.414 22.296 316.634 25.750 "/></g>
<g fill="#DAE1EDFF" stroke="#DAE1EDFF">
<path d="M 422.742 82.550 C 416.826 83.268 411.253 84.001 410.359 84.178 C 409.220 84.404 411.911 87.853 419.357 95.712 C 430.911 107.907 430.171 107.740 431.419 98.435 L 431.965 94.370 424.732 90.943 L 417.500 87.517 425.195 89.607 L 432.890 91.696 435.945 86.782 C 437.625 84.079 439.000 81.672 439.000 81.434 C 439.000 80.797 434.808 81.085 422.742 82.550 "/></g>
<g fill="#DAE1EDFF" stroke="#DAE1EDFF">
<path d="M 114.798 437.048 C 112.096 439.750 111.814 440.573 112.313 444.297 C 113.112 450.253 116.922 453.408 122.425 452.670 C 130.579 451.576 133.788 442.635 128.077 436.923 C 123.991 432.837 118.961 432.885 114.798 437.048 "/></g>
<g fill="#DAE1EDFF" stroke="#DAE1EDFF">
<path d="M 494.500 177.208 C 491.272 179.059 490.066 181.251 490.032 185.327 C 489.948 195.456 503.733 198.669 507.598 189.421 C 510.354 182.823 506.220 175.963 499.527 176.030 C 497.862 176.047 495.600 176.577 494.500 177.208 "/></g>
<g fill="#DAE1EDFF" stroke="#DAE1EDFF">
<path d="M 105.000 377.500 L 105.000 382.000 101.000 382.000 C 97.095 382.000 97.000 382.083 97.000 385.500 C 97.000 388.917 97.095 389.000 101.000 389.000 L 105.000 389.000 105.000 393.000 C 105.000 396.905 105.083 397.000 108.500 397.000 C 111.917 397.000 112.000 396.905 112.000 393.000 L 112.000 389.000 116.500 389.000 C 120.976 389.000 121.000 388.981 121.000 385.500 C 121.000 382.019 120.976 382.000 116.500 382.000 L 112.000 382.000 112.000 377.500 C 112.000 373.024 111.981 373.000 108.500 373.000 C 105.019 373.000 105.000 373.024 105.000 377.500 "/></g>
<g fill="#DAE1EDFF" stroke="#DAE1EDFF">
<path d="M 42.329 188.466 C 38.612 190.073 37.000 192.655 37.000 197.000 C 37.000 201.221 38.461 203.670 42.103 205.553 C 45.592 207.358 49.992 206.772 52.327 204.191 C 59.526 196.236 51.943 184.309 42.329 188.466 "/></g>
<g fill="#DAE1EDFF" stroke="#DAE1EDFF">
<path d="M 551.560 365.022 C 543.906 368.011 543.472 368.804 546.517 374.252 C 548.978 378.655 549.350 378.900 554.548 379.549 C 561.747 380.449 565.000 378.544 565.000 373.427 C 565.000 367.526 561.721 362.884 557.668 363.047 C 557.026 363.073 554.277 363.961 551.560 365.022 "/></g>
<g fill="#DAE1EDFF" stroke="#DAE1EDFF">
<path d="M 88.229 157.669 C 86.310 158.441 84.000 163.512 84.000 166.950 C 84.000 171.046 87.123 174.032 91.250 173.882 C 98.363 173.623 100.253 172.665 102.667 168.099 C 105.484 162.769 104.964 161.879 97.371 159.038 C 91.826 156.963 90.484 156.762 88.229 157.669 "/></g>
<g fill="#B7BFCDFF" stroke="#B7BFCDFF">
<path d="M 544.737 367.691 C 543.697 368.732 541.353 369.414 538.648 369.465 C 532.548 369.580 530.653 371.376 531.327 376.404 C 531.702 379.199 532.856 381.330 535.186 383.528 C 537.014 385.252 538.958 386.554 539.505 386.419 C 540.052 386.285 541.766 385.895 543.313 385.553 C 545.229 385.129 546.562 383.905 547.492 381.715 C 548.746 378.766 548.653 378.129 546.366 374.011 L 543.873 369.521 546.047 367.761 C 547.243 366.792 547.818 366.000 547.325 366.000 C 546.832 366.000 545.667 366.761 544.737 367.691 "/></g>
<g fill="#B7BFCDFF" stroke="#B7BFCDFF">
<path d="M 102.942 161.752 L 105.105 163.504 102.671 168.082 C 100.474 172.214 100.366 172.965 101.556 175.795 C 102.447 177.914 103.786 179.132 105.687 179.553 C 107.234 179.895 108.948 180.285 109.495 180.419 C 110.042 180.554 111.986 179.252 113.814 177.528 C 116.144 175.330 117.298 173.199 117.673 170.404 C 118.345 165.389 116.453 163.580 110.417 163.466 C 107.847 163.418 105.321 162.696 104.213 161.693 C 103.184 160.762 101.991 160.000 101.560 160.000 C 101.130 160.000 101.752 160.788 102.942 161.752 "/></g>
<g fill="#DAE1EDFF" stroke="#DAE1EDFF">
<path d="M 528.000 242.500 L 528.000 247.000 524.000 247.000 C 520.222 247.000 520.000 247.167 520.000 250.000 C 520.000 252.833 520.222 253.000 524.000 253.000 L 528.000 253.000 528.000 257.000 C 528.000 260.778 528.167 261.000 531.000 261.000 C 533.833 261.000 534.000 260.778 534.000 257.000 L 534.000 253.000 538.000 253.000 C 541.778 253.000 542.000 252.833 542.000 250.000 C 542.000 247.167 541.778 247.000 538.000 247.000 L 534.000 247.000 534.000 242.500 C 534.000 238.167 533.889 238.000 531.000 238.000 C 528.111 238.000 528.000 238.167 528.000 242.500 "/></g>
<g fill="#DAE1EDFF" stroke="#DAE1EDFF">
<path d="M 117.387 172.595 C 117.054 173.921 115.436 176.138 113.791 177.522 C 110.294 180.465 110.616 182.233 115.070 184.536 C 120.382 187.283 130.000 183.758 130.000 179.064 C 130.000 176.510 125.700 172.550 121.541 171.274 C 118.215 170.253 117.954 170.336 117.387 172.595 "/></g>
<g fill="#DAE1EDFF" stroke="#DAE1EDFF">
<path d="M 526.091 378.148 C 518.737 381.325 517.064 385.332 521.601 388.901 C 525.376 391.870 530.131 392.501 533.930 390.536 C 538.285 388.284 538.755 386.382 535.574 383.880 C 534.115 382.732 532.376 380.544 531.711 379.018 L 530.500 376.243 526.091 378.148 "/></g>
<g fill="#DAE1EDFF" stroke="#DAE1EDFF">
<path d="M 465.571 160.571 C 461.559 164.583 466.306 171.548 471.454 169.203 C 474.669 167.738 475.551 164.490 473.560 161.451 C 471.708 158.625 467.934 158.209 465.571 160.571 "/></g>
<g fill="#B7BFCDFF" stroke="#B7BFCDFF">
<path d="M 173.757 378.750 C 173.898 401.712 174.254 421.148 174.548 421.940 C 174.842 422.732 175.055 403.944 175.021 380.190 C 174.988 356.435 174.631 337.000 174.230 337.000 C 173.828 336.999 173.615 355.787 173.757 378.750 "/></g>
<g fill="#6E7D9B66" stroke="#6E7D9B66">
<path d="M 354.282 24.243 C 359.112 24.830 362.937 25.632 362.782 26.026 C 362.627 26.420 354.756 35.012 345.292 45.121 C 335.827 55.229 328.480 63.275 328.965 63.000 C 329.450 62.725 337.753 54.092 347.417 43.815 C 360.942 29.433 364.586 25.015 363.244 24.628 C 362.285 24.351 357.900 23.911 353.500 23.651 L 345.500 23.176 354.282 24.243 "/></g>
<g fill="#B7BFCDFF" stroke="#B7BFCDFF">
<path d="M 534.175 242.250 L 534.000 247.000 538.000 247.000 C 541.778 247.000 542.000 247.167 542.000 250.000 C 542.000 252.833 541.778 253.000 538.000 253.000 C 534.011 253.000 534.000 253.011 534.000 256.937 C 534.000 260.629 533.798 260.898 530.750 261.277 C 527.550 261.674 527.558 261.682 531.250 261.840 C 534.985 261.999 535.000 261.984 535.000 258.000 L 535.000 254.000 539.000 254.000 L 543.000 254.000 543.000 250.000 C 543.000 246.010 542.990 246.000 539.057 246.000 C 535.146 246.000 535.112 245.967 534.732 241.750 L 534.349 237.500 534.175 242.250 "/></g>
<g fill="#6E7D9B66" stroke="#6E7D9B66">
<path d="M 316.968 28.033 C 320.230 33.001 323.163 37.164 323.486 37.283 C 323.808 37.402 321.637 33.675 318.662 29.000 L 313.253 20.500 315.876 19.868 C 318.156 19.319 318.011 19.221 314.768 19.118 L 311.037 19.000 316.968 28.033 "/></g>
<g fill="#B7BFCDFF" stroke="#B7BFCDFF">
<path d="M 108.250 372.728 C 111.961 373.117 112.000 373.167 112.000 377.560 L 112.000 382.000 116.750 381.825 L 121.500 381.651 117.250 381.268 L 113.000 380.885 113.000 376.443 L 113.000 372.000 108.750 372.168 L 104.500 372.336 108.250 372.728 "/></g>
<g fill="#B7BFCDFF" stroke="#B7BFCDFF">
<path d="M 112.180 392.690 C 112.005 396.756 111.889 396.891 108.250 397.272 L 104.500 397.664 108.805 397.832 L 113.110 398.000 112.735 393.250 L 112.360 388.500 112.180 392.690 "/></g>
<g fill="#B7BFCDFF" stroke="#B7BFCDFF">
<path d="M 96.168 385.250 L 96.336 389.500 96.725 385.805 C 97.098 382.267 97.293 382.093 101.307 381.729 L 105.500 381.349 100.750 381.175 L 96.000 381.000 96.168 385.250 "/></g>
<g fill="#6E7D9B66" stroke="#6E7D9B66">
<path d="M 548.116 380.059 C 547.910 382.823 545.488 385.150 541.951 385.983 C 538.726 386.742 538.683 386.802 541.295 386.898 C 544.657 387.021 549.354 382.780 548.685 380.227 C 548.326 378.860 548.208 378.825 548.116 380.059 "/></g>
<g fill="#6E7D9B66" stroke="#6E7D9B66">
<path d="M 112.000 163.094 C 116.418 164.465 117.772 165.588 118.304 168.323 C 118.716 170.439 118.731 170.441 118.864 168.405 C 119.046 165.606 116.142 163.138 111.934 162.515 L 108.500 162.007 112.000 163.094 "/></g>
<g fill="#B7BFCDFF" stroke="#B7BFCDFF">
<path d="M 423.000 100.000 L 429.000 106.000 423.000 100.000 L 417.000 94.000 423.000 100.000 "/></g>
<g fill="#B7BFCDFF" stroke="#B7BFCDFF">
<path d="M 466.612 158.819 C 466.333 159.270 467.376 159.452 468.929 159.224 C 471.038 158.914 472.164 159.396 473.376 161.127 C 474.269 162.402 475.000 162.965 475.000 162.377 C 475.000 159.475 468.033 156.520 466.612 158.819 "/></g>
<g fill="#6E7D9B66" stroke="#6E7D9B66">
<path d="M 101.000 176.752 C 101.000 178.526 105.179 181.011 107.973 180.898 C 110.055 180.813 109.893 180.652 107.049 179.983 C 105.151 179.536 103.013 178.371 102.299 177.394 C 101.584 176.417 101.000 176.128 101.000 176.752 "/></g>
<g fill="#6E7D9B66" stroke="#6E7D9B66">
<path d="M 326.596 40.306 C 325.433 41.157 324.970 42.464 325.269 44.056 L 325.728 46.500 325.864 43.903 C 325.949 42.285 326.848 40.897 328.250 40.220 C 329.488 39.624 330.024 39.105 329.441 39.068 C 328.859 39.030 327.579 39.588 326.596 40.306 "/></g>
<g fill="#B7BFCDFF" stroke="#B7BFCDFF">
<path d="M 521.757 389.750 C 523.052 390.988 524.874 391.971 525.806 391.937 C 526.932 391.894 526.669 391.542 525.021 390.884 C 523.657 390.340 521.835 389.356 520.972 388.697 C 520.108 388.039 520.462 388.513 521.757 389.750 "/></g>
<g fill="#B7BFCDFF" stroke="#B7BFCDFF">
<path d="M 55.116 199.115 C 55.052 200.003 54.056 202.028 52.902 203.615 L 50.805 206.500 53.453 203.635 C 54.910 202.059 55.906 200.034 55.667 199.135 C 55.272 197.652 55.221 197.650 55.116 199.115 "/></g>
<g fill="#B7BFCDFF" stroke="#B7BFCDFF">
<path d="M 128.476 182.349 C 128.082 182.816 126.351 183.810 124.630 184.560 C 122.754 185.376 122.205 185.937 123.259 185.961 C 124.226 185.982 125.957 184.988 127.105 183.750 C 128.252 182.513 128.869 181.882 128.476 182.349 "/></g>
</svg>
