<?xml version="1.0" encoding="utf-8"?>
<!DOCTYPE svg PUBLIC "-//W3C//DTD SVG 20010904//EN" "http://www.w3.org/TR/2001/REC-SVG-20010904/DTD/svg10.dtd">
<svg version="1.0" xmlns="http://www.w3.org/2000/svg" width="34pt" height="34pt" viewBox="0 0 34 34" style="" preserveAspectRatio="xMidYMid meet">
<g fill="#0F847BFF" stroke="#0F847BFF">
<path d="M 1.000 17.000 L 1.000 33.000 17.000 33.000 L 33.000 33.000 33.000 25.000 C 33.000 20.333 32.583 17.000 32.000 17.000 C 31.429 17.000 31.000 20.000 31.000 24.000 L 31.000 31.000 17.000 31.000 L 3.000 31.000 3.000 17.000 L 3.000 3.000 11.000 3.000 C 15.667 3.000 19.000 2.583 19.000 2.000 C 19.000 1.407 15.333 1.000 10.000 1.000 L 1.000 1.000 1.000 17.000 "/></g>
<g fill="#0F847BBF" stroke="#0F847BBF">
<path d="M 3.000 17.000 L 3.000 31.000 17.000 31.000 L 31.000 31.000 31.000 24.083 C 31.000 19.486 31.419 16.998 32.250 16.662 C 32.997 16.361 32.795 16.126 31.750 16.079 C 30.242 16.011 30.000 16.970 30.000 23.000 L 30.000 30.000 17.000 30.000 L 4.000 30.000 4.000 17.042 L 4.000 4.084 11.750 3.743 L 19.500 3.402 11.250 3.201 L 3.000 3.000 3.000 17.000 "/></g>
<g fill="#0F847BFF" stroke="#0F847BFF">
<path d="M 21.530 10.970 C 17.172 15.353 13.934 19.267 14.333 19.667 C 15.067 20.401 31.000 5.207 31.000 3.773 C 31.000 1.939 28.986 3.470 21.530 10.970 "/></g>
<g fill="#0E837A80" stroke="#0E837A80">
<path d="M 23.500 12.468 L 16.500 19.545 23.500 12.468 L 30.500 5.392 23.500 12.468 "/></g>
<g fill="#0E837A80" stroke="#0E837A80">
<path d="M 21.500 10.468 L 14.500 17.545 21.500 10.468 L 28.500 3.392 21.500 10.468 "/></g>
<g fill="#10837C40" stroke="#10837C40">
<path d="M 13.152 18.955 C 13.412 19.736 14.264 20.588 15.045 20.848 C 15.938 21.146 15.762 20.619 14.571 19.429 C 13.381 18.238 12.854 18.063 13.152 18.955 "/></g>
</svg>
