<?xml version="1.0" encoding="utf-8"?>
<!DOCTYPE svg PUBLIC "-//W3C//DTD SVG 20010904//EN" "http://www.w3.org/TR/2001/REC-SVG-20010904/DTD/svg10.dtd">
<svg version="1.0" xmlns="http://www.w3.org/2000/svg" width="34pt" height="34pt" viewBox="0 0 34 34" style="" preserveAspectRatio="xMidYMid meet">
<g fill="#0F847BFF" stroke="#0F847BFF">
<path d="M 9.425 7.443 C 9.067 8.868 7.914 10.061 6.656 10.307 C 5.470 10.538 10.125 10.728 17.000 10.728 C 23.875 10.728 28.530 10.538 27.344 10.307 C 26.086 10.061 24.933 8.868 24.575 7.443 C 23.998 5.145 23.549 5.000 17.000 5.000 C 10.451 5.000 10.002 5.145 9.425 7.443 M 23.000 8.000 C 23.000 9.778 22.333 10.000 17.000 10.000 C 11.667 10.000 11.000 9.778 11.000 8.000 C 11.000 6.222 11.667 6.000 17.000 6.000 C 22.333 6.000 23.000 6.222 23.000 8.000 "/></g>
<g fill="#0F847BFF" stroke="#0F847BFF">
<path d="M 7.750 14.577 C 6.853 15.481 6.745 25.172 7.607 27.418 C 8.500 29.745 25.500 29.745 26.393 27.418 C 27.429 24.718 27.098 13.822 26.000 14.500 C 25.450 14.840 25.000 18.016 25.000 21.559 L 25.000 28.000 17.044 28.000 L 9.088 28.000 8.794 20.911 C 8.632 17.011 8.163 14.161 7.750 14.577 "/></g>
<g fill="#0F847BFF" stroke="#0F847BFF">
<path d="M 19.000 19.500 C 19.000 21.425 19.450 23.000 20.000 23.000 C 20.550 23.000 21.000 21.425 21.000 19.500 C 21.000 17.575 20.550 16.000 20.000 16.000 C 19.450 16.000 19.000 17.575 19.000 19.500 "/></g>
<g fill="#0F847BFF" stroke="#0F847BFF">
<path d="M 13.000 19.500 C 13.000 21.425 13.450 23.000 14.000 23.000 C 14.550 23.000 15.000 21.425 15.000 19.500 C 15.000 17.575 14.550 16.000 14.000 16.000 C 13.450 16.000 13.000 17.575 13.000 19.500 "/></g>
<g fill="#0F847BBF" stroke="#0F847BBF">
<path d="M 4.552 9.915 C 4.216 10.459 5.105 10.494 6.743 10.001 C 9.094 9.294 9.177 9.159 7.309 9.086 C 6.104 9.039 4.863 9.412 4.552 9.915 "/></g>
</svg>
