<?xml version="1.0" encoding="utf-8"?>
<!DOCTYPE svg PUBLIC "-//W3C//DTD SVG 20010904//EN" "http://www.w3.org/TR/2001/REC-SVG-20010904/DTD/svg10.dtd">
<svg version="1.0" xmlns="http://www.w3.org/2000/svg" width="242pt" height="242pt" viewBox="0 0 242 242" style="" preserveAspectRatio="xMidYMid meet">
<g fill="#AA0000FF" stroke="#AA0000FF">
<path d="M 117.945 5.750 C 116.075 9.442 113.018 13.484 112.926 12.385 C 112.885 11.898 112.663 12.507 112.434 13.739 C 112.204 14.970 111.112 17.663 110.008 19.724 C 108.904 21.784 108.000 23.953 108.000 24.543 C 108.000 25.132 109.574 28.739 111.497 32.557 C 113.420 36.376 114.995 39.844 114.997 40.264 C 114.999 40.684 113.623 42.259 111.940 43.764 C 109.782 45.693 108.852 47.459 108.787 49.750 C 108.718 52.190 108.243 53.000 106.879 53.000 C 105.675 53.000 105.257 52.494 105.638 51.500 C 105.955 50.675 105.716 50.000 105.107 50.000 C 104.498 50.000 104.000 50.450 104.000 51.000 C 104.000 53.055 99.744 51.898 96.923 49.077 C 94.290 46.444 94.000 45.506 94.000 39.638 C 94.000 33.473 93.785 32.873 90.000 28.500 C 87.690 25.831 86.000 22.848 86.000 21.439 C 86.000 17.939 84.855 18.378 79.744 23.843 C 71.742 32.398 70.301 37.735 73.896 45.500 C 78.469 55.378 94.656 63.593 108.054 62.836 C 111.326 62.651 114.001 62.725 113.997 63.000 C 113.990 63.515 100.828 67.505 95.500 68.607 C 91.399 69.455 74.406 75.757 69.500 78.249 C 50.675 87.813 43.971 97.687 45.423 113.711 C 45.790 117.759 46.343 121.730 46.652 122.535 C 47.338 124.324 48.997 124.475 49.009 122.750 C 49.025 120.476 58.990 108.603 66.303 102.145 C 81.299 88.902 92.225 82.003 106.250 76.920 L 114.000 74.111 114.000 77.449 C 114.000 79.501 113.419 81.009 112.491 81.365 C 111.662 81.683 110.488 83.029 109.884 84.355 C 109.010 86.273 107.835 86.862 104.143 87.233 C 101.589 87.491 96.813 88.781 93.529 90.100 C 88.724 92.031 87.116 93.281 85.296 96.500 C 81.502 103.206 82.672 113.175 87.789 117.747 C 90.301 119.991 94.316 121.354 107.500 124.437 C 111.350 125.338 115.089 126.663 115.809 127.382 C 116.658 128.230 117.185 131.817 117.309 137.595 C 117.489 145.971 117.366 146.559 115.241 147.491 C 111.232 149.250 111.090 155.267 115.033 156.298 C 117.222 156.871 117.651 159.949 115.800 161.800 C 114.411 163.189 105.000 163.445 105.000 162.094 C 105.000 161.595 104.211 161.394 103.247 161.646 C 100.473 162.371 94.022 159.189 93.043 156.613 C 92.175 154.329 92.365 147.459 93.517 139.500 C 94.025 135.993 93.715 135.100 91.005 132.258 C 86.669 127.711 84.059 127.307 79.128 130.419 C 74.728 133.197 73.328 136.317 74.483 140.768 C 74.872 142.271 75.529 147.550 75.941 152.500 C 77.001 165.224 77.740 166.692 85.156 170.824 C 87.947 172.379 92.206 173.144 103.156 174.058 C 111.045 174.716 117.950 175.609 118.500 176.042 C 119.075 176.495 119.433 181.432 119.341 187.665 C 119.220 195.953 118.477 201.349 116.178 210.620 C 112.825 224.145 110.191 230.085 105.678 234.301 C 103.201 236.615 102.897 237.322 104.063 238.060 C 106.013 239.294 110.174 239.226 115.807 237.870 C 119.126 237.071 121.890 235.399 125.250 232.158 C 127.863 229.637 130.000 227.056 130.000 226.422 C 130.000 225.788 130.829 224.197 131.842 222.885 C 134.310 219.689 137.337 204.667 136.762 198.466 C 136.508 195.735 135.688 192.046 134.938 190.268 C 133.816 187.607 133.799 186.195 134.841 182.268 C 135.537 179.646 136.669 176.930 137.357 176.232 C 138.044 175.535 144.208 174.185 151.053 173.232 C 162.953 171.576 166.484 170.319 168.561 167.000 C 169.078 166.175 169.800 160.100 170.168 153.500 C 170.535 146.900 171.138 139.885 171.508 137.911 C 173.447 127.572 156.083 124.144 151.977 134.055 C 150.998 136.419 150.939 137.990 151.741 140.353 C 155.870 152.510 153.161 158.968 143.286 160.507 C 139.676 161.069 138.729 160.820 136.672 158.763 C 133.981 156.072 132.657 147.986 132.862 135.500 C 133.006 126.774 131.687 122.626 127.916 119.940 C 126.299 118.789 125.269 117.373 125.627 116.794 C 126.003 116.187 125.690 115.952 124.889 116.240 C 124.125 116.515 122.136 116.188 120.469 115.513 C 118.802 114.838 114.752 113.955 111.469 113.552 C 101.298 112.303 96.545 107.809 99.305 102.050 C 101.181 98.134 106.666 96.831 122.000 96.655 C 133.970 96.518 135.897 96.732 139.000 98.549 C 144.198 101.591 144.354 105.862 139.429 110.373 C 137.355 112.274 136.037 114.251 136.426 114.880 C 137.307 116.305 144.303 116.315 149.500 114.899 C 156.124 113.093 158.000 110.626 158.000 103.720 C 158.000 98.556 157.586 97.265 154.802 93.750 C 151.342 89.382 146.077 86.616 139.052 85.478 C 133.732 84.616 129.000 80.417 129.000 76.558 C 129.000 74.237 129.292 74.030 131.750 74.602 C 133.263 74.953 136.470 76.087 138.877 77.121 C 141.285 78.154 143.853 79.000 144.584 79.000 C 146.489 79.000 162.713 87.643 167.786 91.360 C 185.468 104.315 192.238 110.743 196.108 118.250 C 197.171 120.313 198.482 122.000 199.020 122.000 C 200.393 122.000 200.256 106.262 198.830 100.086 C 195.859 87.212 176.606 74.810 149.046 68.017 C 142.696 66.452 135.588 64.868 133.250 64.498 C 126.697 63.459 128.217 62.000 135.851 62.000 C 143.801 62.000 147.588 60.869 154.500 56.430 C 161.046 52.227 163.332 49.652 166.424 43.000 C 169.507 36.367 169.577 34.820 167.027 29.566 C 165.244 25.892 155.513 17.000 153.276 17.000 C 152.795 17.000 152.580 18.532 152.799 20.404 C 153.080 22.808 152.418 25.138 150.546 28.332 C 148.521 31.787 147.947 33.996 148.115 37.681 C 148.469 45.455 144.950 49.869 137.495 51.001 C 133.092 51.669 133.000 51.627 133.000 48.930 C 133.000 47.100 131.995 45.332 130.000 43.653 C 128.350 42.265 127.000 40.690 127.000 40.154 C 127.000 39.618 128.350 36.327 129.999 32.840 C 131.649 29.353 132.999 25.680 132.999 24.678 C 133.000 23.128 130.634 18.499 126.500 11.959 C 121.776 4.486 120.709 3.000 120.070 3.000 C 119.667 3.000 118.711 4.238 117.945 5.750 "/></g>
<g fill="#AA0000FF" stroke="#AA0000FF">
<path d="M 76.000 109.000 C 76.000 109.550 76.675 110.000 77.500 110.000 C 78.325 110.000 79.000 109.550 79.000 109.000 C 79.000 108.450 78.325 108.000 77.500 108.000 C 76.675 108.000 76.000 108.450 76.000 109.000 "/></g>
<g fill="#AA0000FF" stroke="#AA0000FF">
<path d="M 200.500 78.000 C 200.160 78.550 200.584 79.000 201.441 79.000 C 202.298 79.000 203.000 78.550 203.000 78.000 C 203.000 77.450 202.577 77.000 202.059 77.000 C 201.541 77.000 200.840 77.450 200.500 78.000 "/></g>
<g fill="#AA0000FF" stroke="#AA0000FF">
<path d="M 167.500 47.000 C 167.160 47.550 167.584 48.000 168.441 48.000 C 169.298 48.000 170.000 47.550 170.000 47.000 C 170.000 46.450 169.577 46.000 169.059 46.000 C 168.541 46.000 167.840 46.450 167.500 47.000 "/></g>
<g fill="#AA0000FF" stroke="#AA0000FF">
<path d="M 69.000 192.000 C 69.000 192.550 69.450 193.000 70.000 193.000 C 70.550 193.000 71.000 192.550 71.000 192.000 C 71.000 191.450 70.550 191.000 70.000 191.000 C 69.450 191.000 69.000 191.450 69.000 192.000 "/></g>
<g fill="#AA0000FF" stroke="#AA0000FF">
<path d="M 31.000 151.000 C 31.000 151.550 31.450 152.000 32.000 152.000 C 32.550 152.000 33.000 151.550 33.000 151.000 C 33.000 150.450 32.550 150.000 32.000 150.000 C 31.450 150.000 31.000 150.450 31.000 151.000 "/></g>
<g fill="#AA0000FF" stroke="#AA0000FF">
<path d="M 205.000 142.000 C 205.000 142.550 205.450 143.000 206.000 143.000 C 206.550 143.000 207.000 142.550 207.000 142.000 C 207.000 141.450 206.550 141.000 206.000 141.000 C 205.450 141.000 205.000 141.450 205.000 142.000 "/></g>
<g fill="#AA0000FF" stroke="#AA0000FF">
<path d="M 170.000 129.000 C 170.000 129.550 170.450 130.000 171.000 130.000 C 171.550 130.000 172.000 129.550 172.000 129.000 C 172.000 128.450 171.550 128.000 171.000 128.000 C 170.450 128.000 170.000 128.450 170.000 129.000 "/></g>
<g fill="#AA0000FF" stroke="#AA0000FF">
<path d="M 181.000 43.000 C 181.000 43.550 181.450 44.000 182.000 44.000 C 182.550 44.000 183.000 43.550 183.000 43.000 C 183.000 42.450 182.550 42.000 182.000 42.000 C 181.450 42.000 181.000 42.450 181.000 43.000 "/></g>
<g fill="#AA0000FF" stroke="#AA0000FF">
<path d="M 56.000 12.000 C 56.000 12.550 56.450 13.000 57.000 13.000 C 57.550 13.000 58.000 12.550 58.000 12.000 C 58.000 11.450 57.550 11.000 57.000 11.000 C 56.450 11.000 56.000 11.450 56.000 12.000 "/></g>
<g fill="#AA0000FF" stroke="#AA0000FF">
<path d="M 182.000 5.000 C 182.000 5.550 182.450 6.000 183.000 6.000 C 183.550 6.000 184.000 5.550 184.000 5.000 C 184.000 4.450 183.550 4.000 183.000 4.000 C 182.450 4.000 182.000 4.450 182.000 5.000 "/></g>
<g fill="#AA0000FF" stroke="#AA0000FF">
<path d="M 88.624 127.799 C 88.212 128.466 88.390 129.000 89.024 129.000 C 89.653 129.000 89.987 128.460 89.766 127.799 C 89.455 126.865 89.202 126.865 88.624 127.799 "/></g>
<g fill="#AA0000FF" stroke="#AA0000FF">
<path d="M 144.000 65.200 C 144.000 66.133 144.267 66.133 145.200 65.200 C 146.133 64.267 146.133 64.000 145.200 64.000 C 144.540 64.000 144.000 64.540 144.000 65.200 "/></g>
<g fill="#AA0000FF" stroke="#AA0000FF">
<path d="M 54.000 13.800 C 54.000 14.460 54.540 15.000 55.200 15.000 C 56.133 15.000 56.133 14.733 55.200 13.800 C 54.267 12.867 54.000 12.867 54.000 13.800 "/></g>
<g fill="#AA0000FF" stroke="#AA0000FF">
<path d="M 81.624 5.799 C 81.212 6.466 81.390 7.000 82.024 7.000 C 82.653 7.000 82.987 6.460 82.766 5.799 C 82.455 4.865 82.202 4.865 81.624 5.799 "/></g>
</svg>
