<?xml version="1.0" encoding="utf-8"?>
<!DOCTYPE svg PUBLIC "-//W3C//DTD SVG 20010904//EN" "http://www.w3.org/TR/2001/REC-SVG-20010904/DTD/svg10.dtd">
<svg version="1.0" xmlns="http://www.w3.org/2000/svg" width="50pt" height="50pt" viewBox="0 0 50 50" style="" preserveAspectRatio="xMidYMid meet">
<g fill="#D81E06FF" stroke="#D81E06FF">
<path d="M 29.364 13.545 L 21.773 25.090 16.302 19.045 C 13.294 15.720 10.532 13.006 10.166 13.012 C 9.526 13.024 5.000 19.508 5.000 20.414 C 5.000 20.656 7.588 22.453 10.750 24.406 C 13.913 26.359 17.126 28.370 17.892 28.875 C 19.046 29.637 18.938 30.279 17.258 32.647 C 16.144 34.216 13.776 37.975 11.996 41.000 L 8.759 46.500 15.494 39.228 L 22.228 31.956 28.658 37.601 C 32.194 40.706 35.258 43.075 35.467 42.866 C 35.676 42.657 33.428 39.507 30.471 35.866 L 25.095 29.246 32.297 22.333 C 36.259 18.531 40.794 14.429 42.376 13.217 L 45.252 11.014 41.559 6.507 C 39.528 4.028 37.661 2.000 37.411 2.000 C 37.161 2.000 33.540 7.195 29.364 13.545 "/></g>
<g fill="#D91C0536" stroke="#D91C0536">
<path d="M 19.405 35.200 L 17.500 37.400 20.385 35.200 C 21.972 33.990 22.829 33.000 22.290 33.000 C 21.751 33.000 20.453 33.990 19.405 35.200 "/></g>
<g fill="#D81F0684" stroke="#D81F0684">
<path d="M 7.794 47.613 C 7.524 49.096 7.610 49.096 8.872 47.613 C 9.700 46.641 9.816 46.000 9.166 46.000 C 8.573 46.000 7.955 46.726 7.794 47.613 "/></g>
<g fill="#D81F0684" stroke="#D81F0684">
<path d="M 37.000 44.882 C 37.000 45.432 37.450 46.160 38.000 46.500 C 38.550 46.840 39.000 46.668 39.000 46.118 C 39.000 45.568 38.550 44.840 38.000 44.500 C 37.450 44.160 37.000 44.332 37.000 44.882 "/></g>
<g fill="#D81F0684" stroke="#D81F0684">
<path d="M 35.000 19.888 L 33.500 21.563 35.000 19.888 L 36.500 18.212 35.000 19.888 "/></g>
<g fill="#D81F0684" stroke="#D81F0684">
<path d="M 30.500 39.500 L 32.000 41.000 30.500 39.500 L 29.000 38.000 30.500 39.500 "/></g>
<g fill="#D81F0684" stroke="#D81F0684">
<path d="M 15.378 39.378 L 14.500 40.256 15.378 39.378 L 16.256 38.500 15.378 39.378 "/></g>
<g fill="#D81F0684" stroke="#D81F0684">
<path d="M 14.500 16.500 L 16.000 18.000 14.500 16.500 L 13.000 15.000 14.500 16.500 "/></g>
<g fill="#D81F0684" stroke="#D81F0684">
<path d="M 38.500 2.500 L 40.000 4.000 38.500 2.500 L 37.000 1.000 38.500 2.500 "/></g>
<g fill="#D71B0726" stroke="#D71B0726">
<path d="M 28.378 26.378 L 27.500 27.256 28.378 26.378 L 29.256 25.500 28.378 26.378 "/></g>
<g fill="#D91C0536" stroke="#D91C0536">
<path d="M 34.500 43.500 L 36.000 45.000 34.500 43.500 L 33.000 42.000 34.500 43.500 "/></g>
<g fill="#D91C0536" stroke="#D91C0536">
<path d="M 18.500 20.500 L 20.000 22.000 18.500 20.500 L 17.000 19.000 18.500 20.500 "/></g>
<g fill="#D81D06D0" stroke="#D81D06D0">
<path d="M 11.564 42.104 C 11.880 42.615 12.635 42.726 13.242 42.350 C 13.934 41.923 13.719 41.576 12.668 41.422 C 11.745 41.286 11.249 41.593 11.564 42.104 "/></g>
<g fill="#D81D06D0" stroke="#D81D06D0">
<path d="M 20.500 23.500 L 22.000 25.000 20.500 23.500 L 19.000 22.000 20.500 23.500 "/></g>
</svg>
