<?xml version="1.0" encoding="utf-8"?>
<!DOCTYPE svg PUBLIC "-//W3C//DTD SVG 20010904//EN" "http://www.w3.org/TR/2001/REC-SVG-20010904/DTD/svg10.dtd">
<svg version="1.0" xmlns="http://www.w3.org/2000/svg" width="50pt" height="50pt" viewBox="0 0 50 50" style="" preserveAspectRatio="xMidYMid meet">
<g fill="#8A8A8AFF" stroke="#8A8A8AFF">
<path d="M 36.227 1.546 C 36.579 2.894 26.048 19.000 24.815 19.000 C 24.302 19.000 24.115 19.377 24.399 19.837 C 24.684 20.297 24.205 21.689 23.336 22.930 L 21.756 25.187 17.128 19.896 C 14.583 16.986 12.480 14.132 12.455 13.553 C 12.430 12.974 11.867 12.613 11.205 12.750 C 9.894 13.022 5.605 17.000 6.622 17.000 C 6.965 17.000 6.680 17.681 5.990 18.512 C 4.951 19.765 5.164 20.410 7.232 22.262 C 8.606 23.493 10.322 24.639 11.045 24.810 C 12.084 25.055 15.603 27.219 18.852 29.611 C 19.046 29.754 18.483 30.900 17.602 32.158 C 16.721 33.416 15.966 34.007 15.923 33.473 C 15.881 32.938 15.705 33.175 15.531 34.000 C 15.078 36.147 10.042 44.698 9.936 43.500 C 9.887 42.950 9.694 43.301 9.507 44.281 C 9.321 45.261 12.102 42.893 15.688 39.019 L 22.209 31.976 25.639 34.988 C 27.526 36.645 28.941 38.053 28.785 38.118 C 28.628 38.184 28.778 38.203 29.117 38.163 C 29.457 38.122 30.773 39.194 32.042 40.544 C 34.441 43.098 36.709 43.931 35.324 41.750 C 34.888 41.063 34.467 40.163 34.390 39.750 C 34.313 39.338 34.194 39.266 34.125 39.592 C 34.056 39.917 31.882 37.583 29.293 34.404 C 26.703 31.226 25.128 28.961 25.793 29.372 C 26.462 29.786 27.000 29.617 27.000 28.994 C 27.000 27.672 36.597 17.558 38.024 17.375 C 38.561 17.306 38.740 17.194 38.423 17.125 C 38.106 17.056 39.169 15.888 40.784 14.528 C 42.400 13.168 44.010 12.343 44.361 12.695 C 44.713 13.046 45.000 12.658 45.000 11.833 C 45.000 11.008 44.663 9.996 44.250 9.583 C 43.838 9.171 43.444 8.421 43.375 7.917 C 43.306 7.413 43.194 7.218 43.125 7.485 C 43.056 7.752 41.415 6.290 39.477 4.235 C 37.539 2.181 36.077 0.971 36.227 1.546 "/></g>
<g fill="#89898936" stroke="#89898936">
<path d="M 11.508 44.266 C 11.153 44.688 10.474 44.793 10.000 44.500 C 9.526 44.207 8.875 44.394 8.553 44.915 C 7.458 46.686 9.805 47.010 10.983 45.251 C 11.627 44.288 11.864 43.845 11.508 44.266 "/></g>
<g fill="#89898936" stroke="#89898936">
<path d="M 18.437 36.205 L 15.500 39.410 19.285 36.205 C 21.366 34.442 22.688 33.000 22.222 33.000 C 21.756 33.000 20.052 34.442 18.437 36.205 "/></g>
<g fill="#89898936" stroke="#89898936">
<path d="M 17.000 19.000 L 20.000 22.000 17.000 19.000 L 14.000 16.000 17.000 19.000 "/></g>
<g fill="#89898936" stroke="#89898936">
<path d="M 38.000 45.882 C 38.000 46.432 38.450 47.160 39.000 47.500 C 39.550 47.840 40.000 47.668 40.000 47.118 C 40.000 46.568 39.550 45.840 39.000 45.500 C 38.450 45.160 38.000 45.332 38.000 45.882 "/></g>
<g fill="#89898936" stroke="#89898936">
<path d="M 33.000 42.000 L 35.000 44.000 33.000 42.000 L 31.000 40.000 33.000 42.000 "/></g>
<g fill="#89898936" stroke="#89898936">
<path d="M 29.000 33.000 L 31.000 35.000 29.000 33.000 L 27.000 31.000 29.000 33.000 "/></g>
<g fill="#89898936" stroke="#89898936">
<path d="M 41.000 14.888 L 39.500 16.563 41.000 14.888 L 42.500 13.212 41.000 14.888 "/></g>
<g fill="#89898936" stroke="#89898936">
<path d="M 41.000 5.000 L 43.000 7.000 41.000 5.000 L 39.000 3.000 41.000 5.000 "/></g>
<g fill="#89898936" stroke="#89898936">
<path d="M 26.500 36.500 L 28.000 38.000 26.500 36.500 L 25.000 35.000 26.500 36.500 "/></g>
<g fill="#89898936" stroke="#89898936">
<path d="M 16.843 29.613 C 17.446 30.651 17.953 30.964 17.970 30.309 C 17.986 29.654 17.493 28.805 16.874 28.422 C 16.045 27.910 16.037 28.224 16.843 29.613 "/></g>
<g fill="#89898936" stroke="#89898936">
<path d="M 33.378 21.378 L 32.500 22.256 33.378 21.378 L 34.256 20.500 33.378 21.378 "/></g>
<g fill="#8A8A8AC2" stroke="#8A8A8AC2">
<path d="M 35.800 44.200 C 36.733 45.133 37.000 45.133 37.000 44.200 C 37.000 43.540 36.460 43.000 35.800 43.000 C 34.867 43.000 34.867 43.267 35.800 44.200 "/></g>
<g fill="#8A8A8AC2" stroke="#8A8A8AC2">
<path d="M 20.500 23.500 L 22.000 25.000 20.500 23.500 L 19.000 22.000 20.500 23.500 "/></g>
<g fill="#8A8A8AC2" stroke="#8A8A8AC2">
<path d="M 11.500 13.500 L 13.000 15.000 11.500 13.500 L 10.000 12.000 11.500 13.500 "/></g>
<g fill="#8A8A8AC2" stroke="#8A8A8AC2">
<path d="M 43.500 8.500 L 45.000 10.000 43.500 8.500 L 42.000 7.000 43.500 8.500 "/></g>
</svg>
